<svg width="1920" height="970" viewBox="0 0 1920 970" fill="none" xmlns="http://www.w3.org/2000/svg">
<rect width="1920" height="970" fill="#323232"/>
<mask id="mask0_346_1105" style="mask-type:luminance" maskUnits="userSpaceOnUse" x="1371" y="524" width="280" height="289">
<path d="M1525.65 524.887L1650.21 632.869L1495.59 812.106L1371.03 704.125L1525.65 524.887Z" fill="white"/>
</mask>
<g mask="url(#mask0_346_1105)">
<path d="M1619.78 610.932C1619.67 608.221 1618.49 605.69 1616.52 603.98L1532.98 531.564C1528.85 527.984 1522.38 528.683 1518.55 533.124L1378.18 695.832C1374.36 700.269 1374.6 706.794 1378.73 710.374L1488.29 805.357C1492.42 808.937 1498.9 808.239 1502.73 803.802L1618.96 669.07C1620.79 666.951 1621.78 664.185 1621.67 661.475L1619.78 610.932ZM1611.63 619.6L1612.95 654.624L1596.21 640.113C1595.49 639.493 1595.45 638.362 1596.11 637.589L1611.63 619.6ZM1494.03 798.704L1384.47 703.72C1383.75 703.101 1383.71 701.971 1384.38 701.2L1524.74 538.492C1525.4 537.724 1526.53 537.599 1527.24 538.218L1609.5 609.529L1589.92 632.222C1586.09 636.66 1586.33 643.185 1590.47 646.768L1611.58 665.073L1496.54 798.434C1495.87 799.205 1494.75 799.324 1494.03 798.704Z" fill="black"/>
</g>
<path d="M1551.05 697.638L1475.97 632.631C1474.27 631.152 1471.59 631.443 1470.01 633.28C1468.42 635.117 1468.52 637.807 1470.23 639.286L1545.3 704.293C1547.01 705.771 1549.68 705.48 1551.27 703.643C1552.86 701.806 1552.76 699.116 1551.05 697.638Z" fill="black"/>
<path d="M1518.03 583.943L1555.56 616.446C1557.27 617.925 1559.95 617.633 1561.53 615.796C1563.12 613.96 1563.02 611.269 1561.31 609.79L1523.77 577.286C1522.07 575.807 1519.39 576.099 1517.81 577.935C1516.22 579.772 1516.32 582.464 1518.03 583.943Z" fill="black"/>
<path d="M1503.25 752.986L1428.17 687.979C1426.46 686.5 1423.79 686.788 1422.2 688.628C1420.61 690.469 1420.72 693.156 1422.42 694.635L1497.5 759.642C1499.21 761.12 1501.88 760.833 1503.47 758.991C1505.06 757.151 1504.96 754.464 1503.25 752.986Z" fill="black"/>
<path d="M1527.15 725.311L1452.07 660.304C1450.37 658.825 1447.7 659.112 1446.11 660.952C1444.52 662.792 1444.62 665.48 1446.33 666.959L1521.4 731.966C1523.11 733.443 1525.78 733.156 1527.37 731.316C1528.96 729.476 1528.86 726.788 1527.15 725.311Z" fill="black"/>
<path d="M1574.95 669.966L1499.87 604.959C1498.17 603.48 1495.49 603.772 1493.91 605.607C1492.32 607.444 1492.42 610.136 1494.13 611.615L1569.2 676.622C1570.91 678.1 1573.58 677.808 1575.17 675.971C1576.76 674.135 1576.66 671.444 1574.95 669.966Z" fill="black"/>
<g clip-path="url(#clip0_346_1105)">
<path d="M1112.74 137.335C1103 131.715 1090.56 135.052 1084.94 144.789C1079.32 154.527 1082.65 166.971 1092.38 172.591C1102.11 178.21 1114.56 174.873 1120.18 165.135C1125.8 155.398 1122.47 142.954 1112.74 137.335Z" fill="black"/>
<mask id="path-10-inside-1_346_1105" fill="white">
<path d="M1023.1 150.709C1024.5 152.284 1025.89 153.866 1027.38 155.391C1025.47 157.366 1023.66 159.351 1021.83 161.429C1005.46 180.462 998.838 199.212 1005.56 210.844C1012.49 222.844 1033.5 226.769 1059.11 221.692C1061.14 221.279 1063.2 220.824 1065.3 220.288C1066.04 222.922 1066.9 225.523 1067.78 228.077C1076.06 251.744 1089.03 266.872 1102.42 266.866C1116.28 266.863 1130.17 250.612 1138.59 225.913C1139.22 224.023 1139.83 222.068 1140.43 220.048C1141.86 220.414 1143.27 220.715 1144.69 221.021C1171.14 226.489 1194.08 223.875 1201.13 211.674C1207.86 200.014 1199.23 179.949 1182.46 160.665L1182.47 160.658C1180.79 158.768 1179.09 156.913 1177.37 155.099C1178.53 153.877 1179.67 152.628 1180.8 151.384C1198.77 131.177 1206.29 110.953 1199.3 98.8029C1192.54 87.1476 1172.55 83.6621 1147.45 88.5744C1144.98 89.0375 1142.5 89.6112 1140.09 90.2233C1139.63 88.6196 1139.13 86.9967 1138.61 85.4156C1130.08 59.7579 1116.32 43.0885 1102.28 43.1494C1088.82 43.1848 1075.8 58.8076 1067.51 82.9445C1066.69 85.3507 1065.93 87.7258 1065.22 90.194C1062.36 89.4621 1059.49 88.8355 1056.75 88.3363C1032.1 83.5948 1010.87 86.3302 1004.16 97.9566C997.227 109.969 1005.97 131.065 1023.1 150.709ZM1057.31 212.271C1047.61 214.422 1037.6 214.791 1027.77 213.332C1022.33 212.904 1017.29 210.259 1013.9 205.991C1009.83 198.922 1015.13 183.865 1029.15 167.58C1030.82 165.675 1032.52 163.781 1034.28 161.97C1041.83 168.793 1049.79 175.083 1058.23 180.821C1059.15 190.954 1060.74 201.06 1062.98 210.967C1061.06 211.446 1059.16 211.893 1057.31 212.258L1057.31 212.271ZM1147.89 168.209C1148.05 163.775 1148.15 159.327 1148.14 154.904C1148.13 150.546 1148.04 146.179 1147.85 141.81C1153.6 146.159 1158.93 150.614 1163.73 155.085C1158.67 159.76 1153.39 164.104 1147.89 168.209ZM1136.9 187.415C1136.14 194.42 1135.04 201.322 1133.56 208.221C1126.81 206.122 1120.18 203.683 1113.7 200.862C1117.65 198.825 1121.52 196.649 1125.36 194.453C1129.28 192.195 1133.1 189.837 1136.9 187.415ZM1137.98 175.273C1132.34 179.098 1126.55 182.726 1120.61 186.176C1114.74 189.604 1108.75 192.772 1102.64 195.812C1096.67 192.932 1090.59 189.676 1084.55 186.189C1078.51 182.702 1072.78 179.139 1067.33 175.521C1066.8 168.703 1066.54 161.875 1066.53 155.049C1066.52 148.224 1066.79 141.448 1067.28 134.649L1067.26 134.639C1072.86 130.791 1078.64 127.194 1084.51 123.766C1090.39 120.338 1096.42 117.194 1102.54 114.219C1108.56 117.123 1114.58 120.291 1120.59 123.76C1126.59 127.228 1132.38 130.874 1137.87 134.612C1138.33 141.351 1138.59 148.111 1138.62 154.903C1138.64 161.696 1138.41 168.491 1137.98 175.273ZM1079.73 115.508C1075.95 117.686 1072.18 119.962 1068.49 122.353C1069.38 115.225 1070.58 108.428 1072.02 102.026C1078.27 103.992 1084.73 106.387 1091.29 109.146C1087.42 111.169 1083.53 113.282 1079.73 115.508ZM1057.25 141.834C1057.07 146.248 1056.94 150.64 1056.95 155.058C1056.98 159.541 1057.05 164.046 1057.28 168.537C1051.66 164.416 1046.25 160.011 1041.1 155.341C1045.99 150.775 1051.41 146.266 1057.25 141.834ZM1072.15 208.355C1070.67 201.862 1069.45 194.908 1068.56 187.661C1072.16 189.95 1075.93 192.221 1079.78 194.444C1083.74 196.732 1087.66 198.9 1091.63 200.925C1085.27 203.768 1078.77 206.233 1072.15 208.355ZM1115.76 248.948C1112.7 253.431 1107.86 256.484 1102.45 257.317C1094.3 257.325 1083.92 245.181 1076.82 224.965C1076 222.643 1075.25 220.208 1074.49 217.72C1084.13 214.614 1093.53 210.858 1102.63 206.468C1111.86 210.821 1121.41 214.54 1131.2 217.576C1130.68 219.375 1130.11 221.15 1129.53 222.874C1126.62 232.281 1121.92 241.111 1115.76 248.948ZM1170.56 161.742C1172.23 163.472 1173.79 165.197 1175.29 166.878C1189.65 183.385 1196.94 199.812 1192.9 206.815C1188.54 214.361 1169.5 216.347 1146.64 211.611C1145.36 211.335 1144.09 211.059 1142.79 210.726C1144.94 200.781 1146.37 190.677 1147.16 180.506C1155.39 174.79 1163.18 168.503 1170.56 161.742ZM1149.27 97.9326C1170.79 93.7377 1186.95 96.5571 1191.02 103.565C1195.36 111.054 1189.15 127.582 1173.63 145.047C1172.61 146.197 1171.6 147.313 1170.52 148.386C1163.09 141.533 1155.24 135.151 1146.99 129.356C1146.13 119.303 1144.61 109.3 1142.4 99.4503C1144.72 98.8972 1146.96 98.3938 1149.27 97.9326ZM1133.23 102.019C1134.74 108.734 1135.89 115.547 1136.67 122.36C1129.25 117.618 1121.59 113.197 1113.78 109.145C1120.41 106.361 1126.96 103.992 1133.23 102.019ZM1102.23 52.6634C1110.87 52.6288 1122.1 66.2971 1129.49 88.4161C1129.96 89.8169 1130.39 91.2984 1130.86 92.7968C1121.18 95.7724 1111.73 99.4453 1102.56 103.696C1093.42 99.4494 1084.03 95.8212 1074.39 92.7772C1075.03 90.5258 1075.76 88.2807 1076.49 86.0312C1083.63 65.3121 1094.12 52.6508 1102.23 52.6634ZM1054.94 97.7027C1057.58 98.1966 1060.21 98.7957 1062.82 99.4272C1060.61 109.289 1059.03 119.311 1058.11 129.343C1049.77 135.257 1041.78 141.723 1034.24 148.658L1034.23 148.661C1032.88 147.268 1031.59 145.858 1030.33 144.405C1023.63 137.099 1016.67 127.64 1013.02 118.41C1010.7 113.476 1010.48 107.81 1012.44 102.724C1016.51 95.6799 1033.86 93.6897 1054.94 97.7027Z"/>
</mask>
<path d="M1023.1 150.709C1024.5 152.284 1025.89 153.866 1027.38 155.391C1025.47 157.366 1023.66 159.351 1021.83 161.429C1005.46 180.462 998.838 199.212 1005.56 210.844C1012.49 222.844 1033.5 226.769 1059.11 221.692C1061.14 221.279 1063.2 220.824 1065.3 220.288C1066.04 222.922 1066.9 225.523 1067.78 228.077C1076.06 251.744 1089.03 266.872 1102.42 266.866C1116.28 266.863 1130.17 250.612 1138.59 225.913C1139.22 224.023 1139.83 222.068 1140.43 220.048C1141.86 220.414 1143.27 220.715 1144.69 221.021C1171.14 226.489 1194.08 223.875 1201.13 211.674C1207.86 200.014 1199.23 179.949 1182.46 160.665L1182.47 160.658C1180.79 158.768 1179.09 156.913 1177.37 155.099C1178.53 153.877 1179.67 152.628 1180.8 151.384C1198.77 131.177 1206.29 110.953 1199.3 98.8029C1192.54 87.1476 1172.55 83.6621 1147.45 88.5744C1144.98 89.0375 1142.5 89.6112 1140.09 90.2233C1139.63 88.6196 1139.13 86.9967 1138.61 85.4156C1130.08 59.7579 1116.32 43.0885 1102.28 43.1494C1088.82 43.1848 1075.8 58.8076 1067.51 82.9445C1066.69 85.3507 1065.93 87.7258 1065.22 90.194C1062.36 89.4621 1059.49 88.8355 1056.75 88.3363C1032.1 83.5948 1010.87 86.3302 1004.16 97.9566C997.227 109.969 1005.97 131.065 1023.1 150.709ZM1057.31 212.271C1047.61 214.422 1037.6 214.791 1027.77 213.332C1022.33 212.904 1017.29 210.259 1013.9 205.991C1009.83 198.922 1015.13 183.865 1029.15 167.58C1030.82 165.675 1032.52 163.781 1034.28 161.97C1041.83 168.793 1049.79 175.083 1058.23 180.821C1059.15 190.954 1060.74 201.06 1062.98 210.967C1061.06 211.446 1059.16 211.893 1057.31 212.258L1057.31 212.271ZM1147.89 168.209C1148.05 163.775 1148.15 159.327 1148.14 154.904C1148.13 150.546 1148.04 146.179 1147.85 141.81C1153.6 146.159 1158.93 150.614 1163.73 155.085C1158.67 159.76 1153.39 164.104 1147.89 168.209ZM1136.9 187.415C1136.14 194.42 1135.04 201.322 1133.56 208.221C1126.81 206.122 1120.18 203.683 1113.7 200.862C1117.65 198.825 1121.52 196.649 1125.36 194.453C1129.28 192.195 1133.1 189.837 1136.9 187.415ZM1137.98 175.273C1132.34 179.098 1126.55 182.726 1120.61 186.176C1114.74 189.604 1108.75 192.772 1102.64 195.812C1096.67 192.932 1090.59 189.676 1084.55 186.189C1078.51 182.702 1072.78 179.139 1067.33 175.521C1066.8 168.703 1066.54 161.875 1066.53 155.049C1066.52 148.224 1066.79 141.448 1067.28 134.649L1067.26 134.639C1072.86 130.791 1078.64 127.194 1084.51 123.766C1090.39 120.338 1096.42 117.194 1102.54 114.219C1108.56 117.123 1114.58 120.291 1120.59 123.76C1126.59 127.228 1132.38 130.874 1137.87 134.612C1138.33 141.351 1138.59 148.111 1138.62 154.903C1138.64 161.696 1138.41 168.491 1137.98 175.273ZM1079.73 115.508C1075.95 117.686 1072.18 119.962 1068.49 122.353C1069.38 115.225 1070.58 108.428 1072.02 102.026C1078.27 103.992 1084.73 106.387 1091.29 109.146C1087.42 111.169 1083.53 113.282 1079.73 115.508ZM1057.25 141.834C1057.07 146.248 1056.94 150.64 1056.95 155.058C1056.98 159.541 1057.05 164.046 1057.28 168.537C1051.66 164.416 1046.25 160.011 1041.1 155.341C1045.99 150.775 1051.41 146.266 1057.25 141.834ZM1072.15 208.355C1070.67 201.862 1069.45 194.908 1068.56 187.661C1072.16 189.95 1075.93 192.221 1079.78 194.444C1083.74 196.732 1087.66 198.9 1091.63 200.925C1085.27 203.768 1078.77 206.233 1072.15 208.355ZM1115.76 248.948C1112.7 253.431 1107.86 256.484 1102.45 257.317C1094.3 257.325 1083.92 245.181 1076.82 224.965C1076 222.643 1075.25 220.208 1074.49 217.72C1084.13 214.614 1093.53 210.858 1102.63 206.468C1111.86 210.821 1121.41 214.54 1131.2 217.576C1130.68 219.375 1130.11 221.15 1129.53 222.874C1126.62 232.281 1121.92 241.111 1115.76 248.948ZM1170.56 161.742C1172.23 163.472 1173.79 165.197 1175.29 166.878C1189.65 183.385 1196.94 199.812 1192.9 206.815C1188.54 214.361 1169.5 216.347 1146.64 211.611C1145.36 211.335 1144.09 211.059 1142.79 210.726C1144.94 200.781 1146.37 190.677 1147.16 180.506C1155.39 174.79 1163.18 168.503 1170.56 161.742ZM1149.27 97.9326C1170.79 93.7377 1186.95 96.5571 1191.02 103.565C1195.36 111.054 1189.15 127.582 1173.63 145.047C1172.61 146.197 1171.6 147.313 1170.52 148.386C1163.09 141.533 1155.24 135.151 1146.99 129.356C1146.13 119.303 1144.61 109.3 1142.4 99.4503C1144.72 98.8972 1146.96 98.3938 1149.27 97.9326ZM1133.23 102.019C1134.74 108.734 1135.89 115.547 1136.67 122.36C1129.25 117.618 1121.59 113.197 1113.78 109.145C1120.41 106.361 1126.96 103.992 1133.23 102.019ZM1102.23 52.6634C1110.87 52.6288 1122.1 66.2971 1129.49 88.4161C1129.96 89.8169 1130.39 91.2984 1130.86 92.7968C1121.18 95.7724 1111.73 99.4453 1102.56 103.696C1093.42 99.4494 1084.03 95.8212 1074.39 92.7772C1075.03 90.5258 1075.76 88.2807 1076.49 86.0312C1083.63 65.3121 1094.12 52.6508 1102.23 52.6634ZM1054.94 97.7027C1057.58 98.1966 1060.21 98.7957 1062.82 99.4272C1060.61 109.289 1059.03 119.311 1058.11 129.343C1049.77 135.257 1041.78 141.723 1034.24 148.658L1034.23 148.661C1032.88 147.268 1031.59 145.858 1030.33 144.405C1023.63 137.099 1016.67 127.64 1013.02 118.41C1010.7 113.476 1010.48 107.81 1012.44 102.724C1016.51 95.6799 1033.86 93.6897 1054.94 97.7027Z" fill="black" stroke="black" stroke-width="2" mask="url(#path-10-inside-1_346_1105)"/>
</g>
<g clip-path="url(#clip1_346_1105)">
<mask id="mask1_346_1105" style="mask-type:luminance" maskUnits="userSpaceOnUse" x="1679" y="186" width="61" height="111">
<path d="M1708.56 186.728L1739.46 195.512L1710.76 296.511L1679.85 287.728L1708.56 186.728Z" fill="white"/>
</mask>
<g mask="url(#mask1_346_1105)">
<path fill-rule="evenodd" clip-rule="evenodd" d="M1708.21 198.758L1705.41 197.961L1708.6 186.739L1711.4 187.536C1720.7 190.177 1726.09 199.854 1723.44 209.151L1717.86 228.79C1717.36 230.556 1717.72 232.455 1718.83 233.916L1724.12 240.879C1725.18 242.273 1725.56 244.069 1725.15 245.771C1724.74 247.474 1723.59 248.904 1722.02 249.665L1712.68 254.172C1711.18 254.896 1710.06 256.228 1709.61 257.831L1704.31 276.484C1701.66 285.781 1691.99 291.176 1682.7 288.535L1679.89 287.738L1683.08 276.516L1685.89 277.313C1688.98 278.193 1692.21 276.395 1693.09 273.296L1698.39 254.643C1699.76 249.834 1703.11 245.839 1707.62 243.666L1710.52 242.263L1709.55 240.981C1706.21 236.598 1705.14 230.9 1706.64 225.602L1712.23 205.963C1713.11 202.864 1711.31 199.638 1708.21 198.758Z" fill="black"/>
</g>
<mask id="mask2_346_1105" style="mask-type:luminance" maskUnits="userSpaceOnUse" x="1632" y="173" width="60" height="110">
<path d="M1660.91 173.184L1691.85 181.979L1663.15 282.979L1632.2 274.183L1660.91 173.184Z" fill="white"/>
</mask>
<g mask="url(#mask2_346_1105)">
<path fill-rule="evenodd" clip-rule="evenodd" d="M1685.78 192.382L1688.58 193.179L1691.77 181.957L1688.97 181.16C1679.68 178.519 1670 183.914 1667.36 193.211L1661.78 212.85C1661.28 214.616 1659.97 216.042 1658.26 216.701L1650.09 219.838C1648.46 220.466 1647.19 221.795 1646.65 223.458C1646.1 225.121 1646.33 226.942 1647.27 228.419L1652.83 237.161C1653.73 238.566 1653.98 240.288 1653.52 241.89L1648.22 260.544C1645.58 269.841 1650.97 279.518 1660.26 282.159L1663.07 282.956L1666.26 271.734L1663.45 270.937C1660.36 270.057 1658.56 266.831 1659.44 263.732L1664.74 245.078C1666.11 240.27 1665.35 235.106 1662.67 230.89L1660.94 228.169L1662.44 227.591C1667.58 225.616 1671.49 221.336 1673 216.038L1678.58 196.399C1679.46 193.3 1682.68 191.502 1685.78 192.382Z" fill="black"/>
</g>
</g>
<g clip-path="url(#clip2_346_1105)">
<path d="M350.027 235.63C346.777 231.332 341.807 220.931 335.4 226.139C335.161 226.375 334.949 226.631 334.761 226.908C334.572 227.187 334.413 227.479 334.282 227.789C334.152 228.097 334.053 228.416 333.985 228.744C333.917 229.072 333.883 229.404 333.881 229.74C333.878 230.075 333.908 230.407 333.971 230.737C334.035 231.066 334.129 231.386 334.256 231.696C334.382 232.007 334.537 232.302 334.721 232.583C334.906 232.863 335.115 233.123 335.351 233.362C337.11 235.162 338.705 237.096 340.137 239.166C341.568 241.236 342.816 243.411 343.88 245.692C344.944 247.974 345.808 250.328 346.475 252.755C347.141 255.182 347.599 257.647 347.848 260.152C347.894 260.625 348.005 261.081 348.179 261.524C348.353 261.966 348.584 262.375 348.872 262.751C349.16 263.13 349.494 263.46 349.874 263.743C350.256 264.027 350.668 264.254 351.111 264.421C365.29 267.157 353.637 241.142 350.027 235.63Z" fill="black"/>
<path d="M381.416 365.204L378.621 358.952C379.316 358.047 379.944 357.1 380.505 356.107C381.066 355.116 381.556 354.089 381.973 353.027C382.39 351.967 382.73 350.882 382.994 349.773C383.258 348.663 383.443 347.542 383.548 346.406C383.654 345.272 383.681 344.136 383.627 342.996C383.572 341.858 383.439 340.728 383.225 339.608C383.012 338.489 382.721 337.389 382.353 336.311C381.985 335.231 381.543 334.184 381.028 333.168L374.89 319.531C374.382 318.415 373.93 317.277 373.533 316.116C373.137 314.955 372.799 313.778 372.517 312.584C372.236 311.39 372.014 310.187 371.851 308.97C371.687 307.755 371.583 306.534 371.54 305.309C371.496 304.083 371.512 302.857 371.588 301.635C371.664 300.41 371.801 299.193 371.995 297.981C372.191 296.771 372.444 295.572 372.757 294.387C373.07 293.2 373.44 292.032 373.866 290.882C374.413 289.434 374.913 287.97 375.369 286.491C375.823 285.012 376.233 283.52 376.596 282.016C376.958 280.51 377.275 278.996 377.544 277.472C377.813 275.948 378.035 274.418 378.209 272.879C378.384 271.342 378.509 269.8 378.588 268.254C378.667 266.708 378.698 265.162 378.682 263.614C378.664 262.067 378.599 260.52 378.486 258.977C378.374 257.434 378.213 255.896 378.005 254.362C377.797 252.829 377.542 251.302 377.238 249.784C376.936 248.268 376.587 246.76 376.191 245.263C375.795 243.767 375.352 242.286 374.865 240.816C374.377 239.349 373.844 237.896 373.266 236.46C372.689 235.025 372.067 233.608 371.402 232.211C370.736 230.814 370.028 229.439 369.277 228.086C368.527 226.731 367.734 225.403 366.901 224.099C366.068 222.794 365.197 221.517 364.284 220.267C363.371 219.018 362.421 217.797 361.433 216.606C360.446 215.413 359.422 214.255 358.363 213.127C357.303 211.999 356.209 210.905 355.082 209.845C353.954 208.786 352.796 207.761 351.605 206.773C350.414 205.785 349.193 204.834 347.944 203.922C346.694 203.01 345.417 202.136 344.114 201.304C342.81 200.469 341.481 199.677 340.128 198.926C338.775 198.175 337.4 197.466 336.004 196.801C334.607 196.134 333.19 195.512 331.755 194.935C330.321 194.356 328.868 193.823 327.399 193.335C325.93 192.847 324.449 192.405 322.953 192.007C321.457 191.611 319.951 191.262 318.434 190.958C316.916 190.656 315.39 190.4 313.856 190.191C312.324 189.984 310.785 189.822 309.241 189.708C307.699 189.597 306.153 189.53 304.606 189.514C303.059 189.496 301.511 189.527 299.966 189.605C298.863 188.523 297.727 187.477 296.561 186.466C295.392 185.456 294.195 184.481 292.966 183.544C291.738 182.607 290.482 181.709 289.199 180.848C287.917 179.988 286.608 179.169 285.274 178.39C283.941 177.611 282.585 176.873 281.205 176.177C279.826 175.482 278.427 174.829 277.007 174.221C275.588 173.612 274.152 173.046 272.697 172.525C271.242 172.005 269.774 171.529 268.291 171.099C266.806 170.669 265.312 170.285 263.805 169.947C262.297 169.61 260.781 169.318 259.255 169.074C257.73 168.83 256.199 168.632 254.662 168.482C253.124 168.332 251.583 168.228 250.041 168.174C248.496 168.119 246.953 168.112 245.408 168.151C243.864 168.192 242.323 168.279 240.784 168.415C239.245 168.549 237.712 168.733 236.185 168.961C234.656 169.191 233.137 169.468 231.627 169.79C230.117 170.113 228.618 170.483 227.13 170.899C225.643 171.315 224.168 171.776 222.71 172.282C221.25 172.789 219.808 173.34 218.383 173.935C216.956 174.531 215.551 175.17 214.165 175.851C212.779 176.534 211.416 177.257 210.074 178.024C208.733 178.79 207.415 179.597 206.123 180.444C204.833 181.292 203.568 182.177 202.331 183.103C201.094 184.028 199.887 184.991 198.709 185.99C197.53 186.99 196.385 188.025 195.271 189.095C194.157 190.165 193.077 191.27 192.031 192.406C190.984 193.543 189.974 194.711 189 195.91C188.026 197.109 187.091 198.337 186.192 199.595C185.294 200.851 184.435 202.135 183.616 203.444C182.796 204.754 182.018 206.088 181.281 207.446C180.545 208.803 179.851 210.182 179.198 211.583C178.545 212.983 177.938 214.403 177.373 215.841C176.925 216.982 176.423 218.098 175.865 219.188C175.309 220.281 174.7 221.342 174.04 222.373C173.379 223.405 172.67 224.402 171.911 225.364C171.152 226.327 170.349 227.25 169.501 228.134C168.652 229.018 167.763 229.858 166.832 230.655C165.901 231.451 164.934 232.201 163.93 232.903C162.926 233.605 161.89 234.257 160.822 234.858C159.754 235.458 158.66 236.006 157.538 236.5L143.836 242.59C142.773 243.004 141.745 243.49 140.751 244.048C139.756 244.607 138.805 245.232 137.899 245.924C136.993 246.617 136.14 247.369 135.338 248.182C134.538 248.995 133.798 249.86 133.12 250.777C132.441 251.694 131.831 252.654 131.288 253.657C130.744 254.661 130.274 255.696 129.878 256.766C129.48 257.835 129.159 258.927 128.916 260.042C128.673 261.156 128.51 262.283 128.424 263.42C103.184 272.012 115.377 291.934 123.255 309.241C127.478 318.629 137.258 325.039 146.751 321.107L152.818 318.392C153.617 319.097 154.463 319.741 155.355 320.325C156.247 320.909 157.175 321.426 158.142 321.876C159.108 322.325 160.102 322.705 161.122 323.011C162.142 323.318 163.18 323.551 164.234 323.708C165.288 323.866 166.348 323.948 167.415 323.954C168.481 323.959 169.541 323.888 170.597 323.741C171.653 323.594 172.692 323.373 173.715 323.075C174.74 322.779 175.737 322.411 176.708 321.97L193.179 314.642C194.263 314.134 195.369 313.681 196.496 313.282C197.623 312.882 198.768 312.538 199.93 312.252C201.09 311.964 202.263 311.733 203.447 311.559C204.63 311.387 205.82 311.271 207.014 311.214C208.21 311.156 209.404 311.157 210.598 311.216C211.793 311.276 212.982 311.392 214.166 311.568C215.348 311.742 216.521 311.975 217.681 312.264C218.842 312.555 219.986 312.9 221.113 313.301C225.882 315.074 230.782 316.346 235.812 317.117C240.842 317.888 245.898 318.141 250.981 317.876C254.59 321.459 258.524 324.638 262.783 327.415C267.042 330.193 271.539 332.51 276.272 334.367C277.594 334.951 278.882 335.606 280.134 336.327C281.386 337.049 282.597 337.835 283.765 338.686C284.933 339.536 286.053 340.447 287.126 341.417C288.196 342.386 289.214 343.41 290.177 344.488C291.139 345.567 292.042 346.693 292.886 347.867C293.728 349.041 294.507 350.256 295.221 351.513C295.934 352.77 296.579 354.062 297.156 355.387C297.732 356.713 298.237 358.065 298.669 359.445L303.6 370.406C304.03 371.384 304.527 372.325 305.091 373.23C305.657 374.136 306.284 374.996 306.972 375.811C307.662 376.627 308.405 377.388 309.204 378.096C310.002 378.805 310.848 379.452 311.739 380.039C312.631 380.624 313.561 381.145 314.527 381.598C315.493 382.05 316.486 382.431 317.509 382.741C318.529 383.05 319.568 383.286 320.624 383.446C321.678 383.607 322.74 383.69 323.807 383.698C326.014 389.151 328.703 395.523 334.964 397.444C336.34 397.928 337.748 398.275 339.191 398.484C340.634 398.692 342.083 398.759 343.539 398.686C344.994 398.611 346.43 398.397 347.844 398.044C349.259 397.691 350.624 397.203 351.944 396.582L369.554 388.704C378.618 384.94 385.54 374.346 381.416 365.204ZM142.584 311.783C139.826 313.024 135.032 310.569 132.573 305.072L124.699 287.461C123.09 283.322 122.241 278.227 126.369 275.525L130.51 273.672L146.725 309.932L142.584 311.783ZM305.898 350.621C305.302 349.174 304.637 347.759 303.899 346.378C303.164 344.997 302.36 343.657 301.49 342.356C300.621 341.054 299.689 339.801 298.694 338.592C297.699 337.384 296.648 336.228 295.537 335.125C294.427 334.021 293.266 332.976 292.052 331.987C290.839 331 289.579 330.076 288.273 329.213C286.968 328.35 285.621 327.555 284.237 326.827C282.852 326.098 281.435 325.44 279.984 324.852C274.387 322.643 269.202 319.707 264.427 316.042C269.07 314.971 273.568 313.467 277.922 311.533C279.056 311.019 280.175 310.478 281.282 309.909C282.389 309.34 283.48 308.743 284.558 308.121C285.634 307.497 286.696 306.849 287.741 306.172C288.786 305.498 289.813 304.796 290.823 304.071C291.834 303.344 292.824 302.592 293.798 301.817C294.771 301.042 295.724 300.243 296.658 299.42C297.591 298.597 298.504 297.752 299.396 296.884C300.287 296.016 301.157 295.127 302.005 294.216C302.852 293.306 303.677 292.374 304.478 291.423C305.28 290.471 306.058 289.5 306.811 288.509C307.565 287.519 308.294 286.511 308.997 285.485C309.7 284.459 310.378 283.416 311.03 282.356C311.681 281.296 312.307 280.221 312.907 279.13C313.505 278.039 314.077 276.935 314.621 275.816C315.165 274.695 315.68 273.564 316.169 272.42C316.657 271.275 317.117 270.12 317.548 268.951C317.979 267.785 318.381 266.607 318.754 265.42C319.125 264.232 319.469 263.037 319.783 261.834C320.095 260.63 320.38 259.418 320.632 258.2C320.886 256.981 321.11 255.758 321.302 254.528C321.495 253.3 321.658 252.066 321.79 250.829C321.921 249.591 322.023 248.352 322.093 247.109C322.164 245.867 322.204 244.624 322.212 243.38C322.222 242.135 322.2 240.891 322.148 239.649C322.094 238.406 322.012 237.164 321.898 235.926C321.784 234.686 321.639 233.451 321.465 232.219C321.289 230.987 321.084 229.76 320.848 228.539C320.611 227.317 320.346 226.101 320.051 224.893C319.755 223.685 319.429 222.485 319.074 221.292C318.717 220.099 318.334 218.916 317.919 217.743C317.505 216.57 317.063 215.407 316.592 214.256C316.12 213.104 315.621 211.965 315.093 210.838C314.949 210.535 314.778 210.248 314.578 209.98C314.378 209.71 314.155 209.462 313.906 209.236C313.657 209.011 313.389 208.813 313.101 208.639C312.813 208.467 312.511 208.324 312.195 208.211C311.88 208.098 311.556 208.018 311.223 207.968C310.891 207.919 310.558 207.904 310.223 207.92C309.887 207.937 309.556 207.986 309.232 208.068C308.907 208.15 308.592 208.262 308.288 208.405C307.985 208.55 307.699 208.722 307.429 208.922C307.161 209.123 306.913 209.347 306.688 209.596C306.463 209.845 306.265 210.113 306.093 210.401C305.92 210.69 305.779 210.992 305.666 211.308C305.553 211.623 305.473 211.948 305.424 212.281C305.375 212.612 305.359 212.946 305.377 213.281C305.393 213.616 305.444 213.946 305.525 214.272C305.608 214.596 305.721 214.911 305.866 215.214C306.553 216.661 307.188 218.13 307.768 219.624C308.347 221.118 308.87 222.63 309.337 224.162C309.804 225.695 310.214 227.242 310.567 228.805C310.918 230.368 311.213 231.942 311.448 233.526C311.684 235.11 311.86 236.702 311.978 238.3C312.095 239.897 312.154 241.497 312.152 243.099C312.151 244.701 312.092 246.301 311.972 247.898C311.852 249.496 311.672 251.087 311.435 252.671C311.197 254.254 310.901 255.829 310.547 257.39C310.193 258.954 309.78 260.501 309.312 262.032C308.843 263.564 308.317 265.076 307.735 266.569C307.155 268.061 306.518 269.53 305.828 270.976C305.138 272.422 304.394 273.841 303.598 275.231C302.802 276.621 301.956 277.98 301.06 279.308C300.164 280.635 299.22 281.928 298.228 283.186C297.234 284.444 296.197 285.663 295.115 286.844C294.032 288.025 292.907 289.164 291.74 290.261C290.573 291.358 289.366 292.411 288.121 293.418C286.875 294.425 285.596 295.386 284.278 296.299C282.961 297.211 281.614 298.074 280.232 298.887C278.853 299.7 277.444 300.459 276.006 301.168C274.569 301.876 273.109 302.53 271.623 303.13C270.137 303.729 268.632 304.273 267.106 304.761C265.58 305.249 264.038 305.68 262.481 306.054C260.923 306.427 259.354 306.742 257.773 306.999C256.192 307.256 254.604 307.454 253.009 307.593C251.412 307.733 249.813 307.813 248.212 307.833C246.61 307.854 245.009 307.816 243.411 307.717C241.812 307.619 240.22 307.462 238.632 307.246C237.046 307.029 235.469 306.755 233.901 306.422C232.335 306.088 230.782 305.697 229.244 305.249C227.708 304.8 226.188 304.296 224.689 303.734C223.217 303.206 221.723 302.753 220.206 302.374C218.688 301.994 217.157 301.691 215.611 301.463C214.064 301.236 212.509 301.087 210.947 301.015C209.385 300.942 207.824 300.947 206.263 301.029C204.701 301.113 203.148 301.273 201.602 301.51C200.057 301.748 198.527 302.061 197.013 302.451C195.499 302.84 194.008 303.304 192.539 303.842C191.071 304.379 189.633 304.988 188.224 305.669L179.746 286.709C179.606 286.41 179.437 286.127 179.241 285.86C179.044 285.593 178.825 285.348 178.581 285.125C178.337 284.901 178.073 284.703 177.792 284.53C177.509 284.357 177.212 284.215 176.902 284.099C176.592 283.984 176.273 283.901 175.947 283.847C175.62 283.794 175.291 283.774 174.96 283.784C174.63 283.796 174.304 283.839 173.982 283.912C173.659 283.987 173.346 284.092 173.045 284.227C172.742 284.362 172.456 284.526 172.186 284.715C171.916 284.907 171.666 285.121 171.437 285.361C171.209 285.601 171.005 285.859 170.827 286.138C170.649 286.417 170.499 286.71 170.378 287.019C170.257 287.326 170.167 287.643 170.106 287.969C170.047 288.294 170.019 288.622 170.023 288.954C170.028 289.284 170.063 289.612 170.131 289.936C170.2 290.259 170.298 290.574 170.427 290.879L178.896 309.821L172.534 312.652C172.168 312.816 171.793 312.961 171.413 313.089C171.033 313.215 170.646 313.323 170.256 313.412C169.864 313.501 169.47 313.571 169.071 313.622C168.674 313.671 168.273 313.703 167.872 313.714C167.471 313.723 167.071 313.716 166.67 313.687C166.27 313.658 165.872 313.61 165.478 313.543C165.082 313.476 164.691 313.388 164.303 313.282C163.916 313.176 163.536 313.053 163.162 312.908C162.786 312.765 162.42 312.603 162.06 312.424C161.701 312.245 161.353 312.048 161.014 311.834C160.674 311.62 160.346 311.39 160.028 311.144C159.711 310.898 159.408 310.636 159.117 310.361C158.825 310.085 158.549 309.795 158.286 309.492C158.023 309.188 157.776 308.872 157.545 308.545C157.313 308.218 157.097 307.88 156.899 307.53C156.7 307.181 156.52 306.825 156.357 306.458L139.595 268.983C139.44 268.567 139.305 268.144 139.194 267.714C139.082 267.285 138.99 266.851 138.923 266.411C138.855 265.973 138.809 265.531 138.786 265.088C138.762 264.644 138.763 264.201 138.785 263.757C138.807 263.314 138.852 262.873 138.919 262.433C138.986 261.994 139.075 261.56 139.186 261.13C139.297 260.7 139.431 260.277 139.585 259.86C139.74 259.443 139.916 259.036 140.111 258.638C140.308 258.239 140.523 257.852 140.759 257.475C140.995 257.099 141.248 256.735 141.522 256.384C141.795 256.035 142.085 255.697 142.391 255.378C142.698 255.056 143.021 254.752 143.359 254.464C143.697 254.175 144.048 253.904 144.414 253.652C144.78 253.401 145.157 253.167 145.547 252.953C145.936 252.739 146.335 252.546 146.743 252.374C147.154 252.2 147.569 252.049 147.994 251.918L152.147 250.072L162.088 272.231C162.23 272.529 162.399 272.811 162.596 273.077C162.793 273.344 163.012 273.588 163.257 273.811C163.5 274.034 163.765 274.231 164.047 274.404C164.329 274.576 164.626 274.719 164.936 274.832C165.247 274.948 165.565 275.031 165.893 275.083C166.218 275.136 166.546 275.156 166.878 275.145C167.208 275.133 167.534 275.09 167.857 275.015C168.178 274.941 168.49 274.835 168.793 274.7C169.094 274.564 169.38 274.4 169.649 274.21C169.92 274.019 170.169 273.803 170.398 273.565C170.626 273.325 170.828 273.066 171.006 272.787C171.184 272.508 171.333 272.214 171.454 271.906C171.575 271.598 171.665 271.281 171.724 270.956C171.783 270.63 171.811 270.303 171.807 269.972C171.802 269.641 171.765 269.314 171.698 268.991C171.63 268.666 171.531 268.352 171.403 268.048L161.478 245.925C162.916 245.299 164.319 244.603 165.689 243.84C167.059 243.075 168.387 242.246 169.675 241.35C170.962 240.455 172.203 239.499 173.397 238.482C174.59 237.464 175.731 236.391 176.818 235.261C177.906 234.132 178.936 232.95 179.908 231.719C180.879 230.488 181.787 229.212 182.633 227.891C183.478 226.571 184.257 225.212 184.97 223.814C185.681 222.417 186.323 220.988 186.894 219.526C187.345 218.36 187.831 217.206 188.348 216.067C188.867 214.927 189.419 213.804 190.001 212.697C190.585 211.59 191.2 210.5 191.846 209.428C192.494 208.357 193.17 207.304 193.879 206.273C194.586 205.24 195.323 204.229 196.089 203.24C196.856 202.25 197.65 201.284 198.472 200.339C199.295 199.395 200.144 198.477 201.019 197.582C201.895 196.688 202.796 195.82 203.723 194.979C204.649 194.137 205.599 193.322 206.571 192.535C207.545 191.748 208.54 190.991 209.557 190.26C210.575 189.532 211.612 188.832 212.67 188.164C213.728 187.494 214.804 186.857 215.899 186.25C216.994 185.644 218.105 185.07 219.233 184.528C220.362 183.986 221.505 183.477 222.662 183.002C223.819 182.526 224.99 182.084 226.174 181.676C227.356 181.269 228.551 180.895 229.756 180.557C230.961 180.219 232.174 179.915 233.396 179.647C234.619 179.378 235.849 179.146 237.084 178.95C238.32 178.752 239.561 178.592 240.807 178.467C242.052 178.343 243.299 178.254 244.55 178.201C245.8 178.149 247.05 178.134 248.303 178.153C249.553 178.174 250.802 178.231 252.051 178.323C253.299 178.416 254.544 178.545 255.784 178.709C257.024 178.875 258.259 179.075 259.489 179.312C260.717 179.549 261.938 179.82 263.15 180.128C264.364 180.435 265.567 180.778 266.761 181.155C267.954 181.532 269.136 181.944 270.305 182.389C271.474 182.836 272.629 183.314 273.77 183.827C274.912 184.341 276.038 184.886 277.148 185.464C278.258 186.043 279.35 186.653 280.424 187.294C281.499 187.935 282.554 188.608 283.59 189.31C284.625 190.014 285.639 190.745 286.633 191.508C243.397 200.228 217.204 249.993 233.276 290.672C233.397 290.98 233.547 291.273 233.725 291.552C233.904 291.831 234.107 292.09 234.337 292.33C234.566 292.568 234.816 292.782 235.085 292.974C235.357 293.164 235.643 293.326 235.945 293.462C236.249 293.596 236.561 293.7 236.884 293.775C237.206 293.849 237.533 293.89 237.863 293.901C238.194 293.911 238.523 293.89 238.85 293.836C239.176 293.783 239.495 293.698 239.805 293.583C240.115 293.466 240.412 293.322 240.693 293.149C240.976 292.976 241.238 292.777 241.482 292.553C241.726 292.328 241.945 292.083 242.141 291.816C242.336 291.549 242.505 291.265 242.646 290.966C242.787 290.666 242.897 290.357 242.977 290.035C243.058 289.713 243.106 289.387 243.122 289.057C243.14 288.726 243.125 288.397 243.078 288.07C243.03 287.742 242.952 287.422 242.842 287.109C217.276 213.424 316.215 165.282 358.721 230.27C359.374 231.319 359.998 232.388 360.591 233.472C361.183 234.559 361.744 235.659 362.273 236.777C362.802 237.895 363.299 239.027 363.764 240.173C364.227 241.32 364.659 242.479 365.056 243.65C365.455 244.822 365.819 246.002 366.148 247.194C366.478 248.386 366.774 249.587 367.035 250.796C367.295 252.005 367.522 253.22 367.712 254.443C367.904 255.664 368.061 256.891 368.181 258.122C368.301 259.354 368.386 260.587 368.436 261.823C368.487 263.058 368.501 264.294 368.48 265.531C368.458 266.768 368.402 268.003 368.309 269.236C368.218 270.47 368.09 271.7 367.928 272.925C367.764 274.152 367.568 275.373 367.335 276.587C367.101 277.803 366.835 279.009 366.531 280.209C366.23 281.408 365.893 282.598 365.523 283.778C365.153 284.959 364.749 286.126 364.311 287.284C363.764 288.753 363.29 290.244 362.888 291.76C362.488 293.276 362.163 294.807 361.913 296.354C361.663 297.903 361.49 299.458 361.393 301.023C361.296 302.587 361.276 304.153 361.334 305.719C361.391 307.286 361.525 308.846 361.736 310.399C361.947 311.952 362.233 313.491 362.596 315.017C362.957 316.542 363.394 318.044 363.904 319.527C364.414 321.008 364.996 322.462 365.65 323.887L305.898 350.621ZM329.125 372.442C328.757 372.605 328.384 372.752 328.003 372.88C327.621 373.008 327.236 373.117 326.843 373.207C326.451 373.296 326.056 373.366 325.658 373.418C325.259 373.468 324.858 373.499 324.457 373.511C324.055 373.521 323.653 373.514 323.253 373.486C322.852 373.457 322.453 373.41 322.057 373.343C321.66 373.275 321.268 373.189 320.881 373.082C320.493 372.976 320.111 372.85 319.737 372.707C319.361 372.564 318.993 372.402 318.634 372.223C318.274 372.042 317.925 371.845 317.585 371.631C317.245 371.416 316.916 371.187 316.598 370.94C316.28 370.693 315.976 370.431 315.685 370.154C315.393 369.879 315.115 369.588 314.854 369.283C314.59 368.98 314.342 368.663 314.111 368.335C313.879 368.006 313.664 367.668 313.466 367.318C313.266 366.968 313.085 366.61 312.923 366.243L310.085 359.932L369.842 333.197L371.711 337.349C371.899 337.679 372.074 338.017 372.234 338.361C372.394 338.705 372.539 339.056 372.669 339.412C372.801 339.77 372.915 340.131 373.016 340.496C373.116 340.863 373.201 341.233 373.271 341.607C373.34 341.981 373.394 342.356 373.431 342.733C373.469 343.112 373.491 343.49 373.497 343.871C373.503 344.25 373.492 344.63 373.467 345.008C373.442 345.387 373.4 345.765 373.342 346.141C373.285 346.516 373.213 346.888 373.122 347.258C373.034 347.627 372.93 347.992 372.811 348.352C372.692 348.713 372.558 349.068 372.409 349.418C372.26 349.767 372.096 350.109 371.919 350.445C371.74 350.781 371.549 351.109 371.344 351.427C371.138 351.747 370.921 352.058 370.689 352.36C370.458 352.66 370.213 352.951 369.959 353.232C369.703 353.514 369.435 353.784 369.157 354.042C370.914 354.265 329.487 372.074 329.125 372.442ZM371.515 374.067C370.8 375.255 369.919 376.302 368.872 377.21C367.825 378.118 366.663 378.843 365.387 379.384L347.776 387.262C342.281 389.717 337.073 388.344 335.839 385.594L333.988 381.451L370.244 365.231L372.096 369.376C372.226 369.763 372.311 370.16 372.352 370.568C372.393 370.976 372.389 371.381 372.339 371.787C372.288 372.194 372.194 372.589 372.055 372.974C371.916 373.358 371.736 373.723 371.515 374.067Z" fill="black"/>
<path d="M291.951 233.784C291.913 233.372 291.847 232.965 291.754 232.563C291.66 232.159 291.54 231.765 291.393 231.379C291.245 230.992 291.071 230.619 290.872 230.256C290.672 229.893 290.45 229.546 290.203 229.215C289.956 228.883 289.687 228.57 289.398 228.275C289.108 227.98 288.799 227.707 288.472 227.455C288.144 227.203 287.802 226.974 287.442 226.769C287.083 226.563 286.712 226.383 286.329 226.229C285.944 226.076 285.553 225.948 285.151 225.847C284.75 225.749 284.344 225.676 283.933 225.632C283.523 225.587 283.11 225.572 282.697 225.583C282.284 225.595 281.874 225.636 281.465 225.704C281.058 225.773 280.657 225.869 280.262 225.993C279.868 226.117 279.483 226.267 279.11 226.444C278.736 226.621 278.376 226.822 278.031 227.048C277.684 227.274 277.355 227.523 277.042 227.794L271.85 232.441C266.635 231.181 260.141 228.559 256.09 233.758C251.703 238.675 255.416 244.571 257.582 249.497C254.772 254.071 250.273 259.433 253.96 264.893C257.277 270.588 264.033 268.88 269.39 268.337C272.871 272.424 276.57 278.357 282.912 276.538C289.354 275.143 289.817 268.184 290.958 262.923L297.407 260.272C297.787 260.109 298.154 259.922 298.51 259.709C298.864 259.496 299.204 259.26 299.526 259.002C299.848 258.742 300.151 258.461 300.434 258.16C300.718 257.859 300.98 257.539 301.218 257.203C301.459 256.865 301.674 256.513 301.865 256.146C302.056 255.779 302.223 255.401 302.362 255.013C302.5 254.622 302.613 254.225 302.696 253.82C302.781 253.416 302.838 253.007 302.865 252.594C302.895 252.181 302.894 251.768 302.866 251.356C302.837 250.944 302.78 250.534 302.696 250.129C302.61 249.724 302.499 249.327 302.359 248.938C302.219 248.549 302.054 248.171 301.862 247.804C301.67 247.437 301.455 247.085 301.214 246.749C300.974 246.412 300.712 246.092 300.429 245.792C300.145 245.491 299.841 245.211 299.519 244.951C299.196 244.693 298.859 244.457 298.503 244.244L292.478 240.738L291.951 233.784ZM286.462 253.732C281.734 255.382 280.834 260.82 280.041 265.106L276.75 261.227C273.722 257.231 268.272 258.054 263.948 258.631C266.353 254.979 269.459 250.443 267.188 245.977L265.134 241.319L270.075 242.518C274.936 243.956 278.754 240.123 281.961 237.094C282.175 241.511 282.278 246.898 286.772 249.234L291.172 251.794L286.462 253.732Z" fill="black"/>
<path d="M278.73 162.391C278.778 162.72 278.858 163.038 278.967 163.352C279.079 163.664 279.218 163.962 279.388 164.247C279.556 164.532 279.751 164.797 279.971 165.044C280.191 165.291 280.434 165.516 280.699 165.716C280.962 165.915 281.243 166.088 281.541 166.233C281.839 166.379 282.148 166.494 282.467 166.579C282.788 166.664 283.113 166.717 283.443 166.739C283.774 166.76 284.103 166.751 284.433 166.708C284.76 166.666 285.081 166.592 285.396 166.487C285.71 166.382 286.011 166.248 286.299 166.085C286.588 165.921 286.857 165.731 287.109 165.516C287.36 165.3 287.587 165.061 287.792 164.8C287.997 164.541 288.174 164.263 288.326 163.967C288.477 163.673 288.597 163.366 288.688 163.047C288.78 162.729 288.839 162.405 288.868 162.075C288.896 161.744 288.891 161.416 288.855 161.086L285.906 138.204C285.86 137.875 285.781 137.553 285.671 137.24C285.562 136.927 285.422 136.628 285.254 136.342C285.084 136.055 284.89 135.789 284.67 135.541C284.449 135.292 284.206 135.068 283.942 134.866C283.678 134.666 283.397 134.492 283.099 134.347C282.8 134.201 282.491 134.084 282.171 133.999C281.85 133.914 281.523 133.86 281.192 133.838C280.861 133.816 280.53 133.826 280.201 133.868C279.872 133.911 279.551 133.985 279.235 134.089C278.92 134.196 278.619 134.33 278.331 134.494C278.042 134.658 277.772 134.849 277.521 135.065C277.269 135.282 277.041 135.522 276.836 135.783C276.631 136.044 276.453 136.323 276.303 136.619C276.152 136.915 276.032 137.222 275.942 137.543C275.851 137.861 275.792 138.186 275.765 138.518C275.738 138.849 275.743 139.179 275.782 139.508L278.73 162.391Z" fill="black"/>
<path d="M326.743 182.957C326.963 183.21 327.205 183.44 327.469 183.645C327.733 183.851 328.015 184.029 328.316 184.179C328.615 184.329 328.925 184.449 329.25 184.537C329.572 184.626 329.9 184.684 330.235 184.708C330.569 184.731 330.902 184.722 331.235 184.682C331.567 184.64 331.893 184.566 332.211 184.461C332.529 184.357 332.834 184.22 333.125 184.056C333.417 183.89 333.689 183.698 333.943 183.479L351.395 168.387C351.647 168.167 351.877 167.926 352.084 167.661C352.289 167.397 352.468 167.115 352.618 166.815C352.768 166.515 352.889 166.204 352.976 165.881C353.066 165.557 353.123 165.228 353.147 164.895C353.171 164.56 353.162 164.227 353.122 163.894C353.079 163.561 353.006 163.236 352.901 162.918C352.795 162.599 352.66 162.295 352.494 162.003C352.328 161.712 352.136 161.439 351.916 161.186C351.697 160.932 351.455 160.702 351.191 160.497C350.927 160.291 350.645 160.113 350.345 159.962C350.046 159.812 349.734 159.693 349.411 159.603C349.088 159.514 348.759 159.458 348.425 159.433C348.09 159.409 347.757 159.418 347.425 159.46C347.092 159.5 346.766 159.574 346.448 159.68C346.13 159.785 345.826 159.922 345.533 160.087C345.242 160.252 344.97 160.446 344.716 160.665L327.265 175.755C327.011 175.975 326.782 176.217 326.575 176.482C326.369 176.746 326.192 177.028 326.042 177.328C325.891 177.628 325.771 177.939 325.682 178.262C325.594 178.585 325.537 178.914 325.513 179.248C325.488 179.583 325.496 179.916 325.538 180.249C325.58 180.582 325.652 180.907 325.759 181.225C325.864 181.543 325.999 181.849 326.166 182.14C326.332 182.431 326.523 182.704 326.743 182.957Z" fill="black"/>
<path d="M309.814 163.828C310.128 163.948 310.449 164.035 310.779 164.091C311.11 164.148 311.443 164.171 311.778 164.163C312.113 164.153 312.444 164.11 312.77 164.036C313.098 163.962 313.414 163.856 313.72 163.719C314.027 163.582 314.316 163.417 314.589 163.222C314.862 163.029 315.115 162.81 315.344 162.567C315.575 162.323 315.78 162.059 315.958 161.775C316.136 161.491 316.286 161.193 316.405 160.88L323.872 141.328C323.992 141.016 324.079 140.693 324.136 140.363C324.192 140.032 324.215 139.7 324.205 139.365C324.197 139.03 324.155 138.698 324.08 138.372C324.006 138.045 323.901 137.728 323.764 137.422C323.626 137.117 323.461 136.826 323.266 136.553C323.073 136.28 322.855 136.027 322.611 135.798C322.368 135.567 322.103 135.362 321.82 135.184C321.536 135.006 321.238 134.857 320.924 134.737C320.612 134.617 320.289 134.53 319.959 134.473C319.628 134.417 319.296 134.394 318.961 134.404C318.626 134.412 318.295 134.455 317.968 134.53C317.641 134.603 317.324 134.71 317.019 134.846C316.713 134.983 316.423 135.148 316.149 135.343C315.876 135.536 315.624 135.756 315.393 135.999C315.164 136.243 314.959 136.506 314.78 136.79C314.602 137.073 314.453 137.373 314.334 137.685L306.867 157.237C306.747 157.551 306.659 157.872 306.602 158.202C306.547 158.533 306.524 158.866 306.532 159.201C306.542 159.536 306.583 159.867 306.658 160.193C306.733 160.521 306.839 160.837 306.976 161.143C307.112 161.449 307.277 161.739 307.471 162.013C307.666 162.286 307.884 162.538 308.128 162.769C308.372 162.998 308.635 163.202 308.918 163.381C309.202 163.559 309.501 163.709 309.814 163.828Z" fill="black"/>
</g>
<g clip-path="url(#clip3_346_1105)">
<mask id="mask3_346_1105" style="mask-type:luminance" maskUnits="userSpaceOnUse" x="395" y="695" width="62" height="86">
<path d="M395.81 708.476L427.002 695.665L456.736 768.06L425.544 780.871L395.81 708.476Z" fill="white"/>
</mask>
<g mask="url(#mask3_346_1105)">
<path d="M423.495 697.412C422.903 697.467 422.296 697.598 421.75 697.822C419.528 698.735 418.137 700.982 418.292 703.373L423.09 773.923C423.124 774.523 423.267 775.102 423.5 775.667C424.669 778.515 427.967 779.876 430.796 778.714C433.018 777.802 434.409 775.554 434.253 773.163L429.455 702.613C429.422 702.013 429.27 701.414 429.046 700.869C428.134 698.647 425.886 697.256 423.495 697.412Z" fill="black"/>
</g>
<path d="M388.9 725.171C387.532 724.6 385.995 724.594 384.621 725.158C383.247 725.723 382.158 726.808 381.586 728.175L369.393 757.357C368.822 758.725 368.815 760.262 369.38 761.635C369.944 763.009 371.028 764.097 372.396 764.669L401.58 776.856C402.932 777.387 404.44 777.381 405.774 776.833C408.602 775.672 409.983 772.366 408.822 769.538C408.274 768.205 407.218 767.128 405.891 766.54L381.865 756.507L391.903 732.484C392.475 731.116 392.481 729.579 391.917 728.205C391.353 726.832 390.268 725.743 388.9 725.171Z" fill="black"/>
<path d="M480.149 711.867L450.966 699.68C449.614 699.149 448.105 699.155 446.772 699.703C443.943 700.864 442.562 704.17 443.724 706.998C444.271 708.331 445.328 709.408 446.655 709.996L470.681 720.029L460.642 744.052C460.03 745.437 460.021 747.022 460.593 748.416C461.763 751.264 465.04 752.633 467.889 751.464C469.283 750.891 470.405 749.769 470.96 748.361L483.152 719.179C483.724 717.811 483.73 716.274 483.166 714.901C482.602 713.527 481.517 712.439 480.149 711.867Z" fill="black"/>
</g>
<defs>
<clipPath id="clip0_346_1105">
<rect width="227.434" height="227.434" fill="white" transform="translate(1060.72) rotate(30)"/>
</clipPath>
<clipPath id="clip1_346_1105">
<rect width="105" height="105" fill="white" transform="translate(1649.71 170) rotate(15.8667)"/>
</clipPath>
<clipPath id="clip2_346_1105">
<rect width="300.187" height="300.187" fill="white" transform="translate(187.102 53) rotate(20.9029)"/>
</clipPath>
<clipPath id="clip3_346_1105">
<rect width="123.034" height="123.034" fill="white" transform="translate(346 704.743) rotate(-22.3288)"/>
</clipPath>
</defs>
</svg>
