<svg width="95" height="95" viewBox="0 0 95 95" fill="none" xmlns="http://www.w3.org/2000/svg">
<g clip-path="url(#clip0_277_1510)">
<path d="M34.8333 85.5H60.1667C63.9889 85.5 67.1863 88.2214 67.9225 91.8333H27.0775C27.8132 88.2214 31.0111 85.5 34.8333 85.5ZM40.9747 71.3613C38.9277 71.9056 36.7937 71.627 34.963 70.5697C33.1323 69.5118 31.8211 67.8048 31.2768 65.7638L30.0462 61.1746L34.6354 59.944C38.8535 58.8119 43.2013 61.3294 44.3333 65.5411L45.5639 70.1303L40.9747 71.3613ZM23.75 49.0833V12.6667H71.25V49.0833C71.25 49.9552 70.5385 50.6667 69.6667 50.6667H25.3333C24.461 50.6667 23.75 49.9552 23.75 49.0833ZM25.3333 3.16667H69.6667C70.5385 3.16667 71.25 3.87816 71.25 4.75V9.5H23.75V4.75C23.75 3.87816 24.461 3.16667 25.3333 3.16667ZM50.6667 65.5411C51.7983 61.323 56.1401 58.8119 60.3646 59.944L64.9538 61.1746L63.7228 65.7638C63.1785 67.8048 61.8673 69.5118 60.0366 70.5697C58.2058 71.627 56.0659 71.9056 54.0248 71.3613L49.4356 70.1303L50.6667 65.5411ZM71.1199 91.8333C70.353 86.4708 65.739 82.3333 60.1667 82.3333H49.0833V73.3158L53.2084 74.4167C54.1609 74.6764 55.1322 74.8001 56.0906 74.8001C58.0143 74.8001 59.9129 74.2989 61.6139 73.3093C64.1804 71.8314 66.0176 69.4376 66.7781 66.5802L68.4233 60.4635C68.6459 59.616 68.1452 58.7501 67.304 58.5274L61.1869 56.8823C56.4681 55.6205 51.6439 57.6185 49.0833 61.4714V53.8333H69.6667C72.2891 53.8333 74.4167 51.7057 74.4167 49.0833V4.75C74.4167 2.1276 72.2891 0 69.6667 0H25.3333C22.7109 0 20.5833 2.1276 20.5833 4.75V49.0833C20.5833 51.7057 22.7109 53.8333 25.3333 53.8333H45.9167V61.4714C43.3561 57.6185 38.5319 55.6205 33.8126 56.8823L27.696 58.5274C26.8548 58.7501 26.3536 59.616 26.5763 60.4635L28.2155 66.5802C28.9824 69.4376 30.8191 71.8314 33.3797 73.3093C35.0867 74.2989 36.9857 74.8001 38.903 74.8001C39.8678 74.8001 40.8386 74.6764 41.7911 74.4167L45.9167 73.3158V82.3333H34.8333C29.2605 82.3333 24.6466 86.4708 23.8797 91.8333H0V95H95V91.8333H71.1199Z" fill="#0057B2"/>
<path d="M30.0834 4.75H26.9167V7.91667H30.0834V4.75Z" fill="#0057B2"/>
<path d="M36.4167 4.75H33.25V7.91667H36.4167V4.75Z" fill="#0057B2"/>
<path d="M42.7499 4.75H39.5833V7.91667H42.7499V4.75Z" fill="#0057B2"/>
<path d="M38.4636 28.0364L40.7026 25.7975L37.0723 22.1667L40.7026 18.5364L38.4636 16.2975L33.7136 21.0475C33.0951 21.666 33.0951 22.6679 33.7136 23.2864L38.4636 28.0364Z" fill="#0057B2"/>
<path d="M50.5676 16.39L47.5989 15.2767L42.8489 27.9434L45.8176 29.0567L50.5676 16.39Z" fill="#0057B2"/>
<path d="M54.9526 28.0364L59.7026 23.2864C60.321 22.6679 60.321 21.666 59.7026 21.0475L54.9526 16.2975L52.7136 18.5364L56.3444 22.1667L52.7136 25.7975L54.9526 28.0364Z" fill="#0057B2"/>
<path d="M38.0001 31.6666H31.6667V34.8333H38.0001V31.6666Z" fill="#0057B2"/>
<path d="M60.1667 31.6666H41.1667V34.8333H60.1667V31.6666Z" fill="#0057B2"/>
<path d="M33.25 47.5H39.5833V44.3334H33.25V47.5Z" fill="#0057B2"/>
<path d="M42.75 47.5H61.75V44.3334H42.75V47.5Z" fill="#0057B2"/>
<path d="M34.8333 41.1667H41.1666V38H34.8333V41.1667Z" fill="#0057B2"/>
<path d="M44.3333 41.1667H63.3333V38H44.3333V41.1667Z" fill="#0057B2"/>
</g>
<defs>
<clipPath id="clip0_277_1510">
<rect width="95" height="95" fill="white"/>
</clipPath>
</defs>
</svg>
