<svg width="97" height="97" viewBox="0 0 97 97" fill="none" xmlns="http://www.w3.org/2000/svg">
<path d="M39.0461 7.8785L46.0035 3.4902C46.1233 3.41442 46.2369 3.38963 46.338 3.38963C46.4891 3.38963 46.6154 3.44623 46.6593 3.47149C46.773 3.53464 46.9054 3.64784 46.9054 3.83683V12.6256C46.9054 12.8146 46.773 12.9282 46.6593 12.9914C46.5775 13.0354 46.2935 13.1617 46.0035 12.9722L39.0461 8.5783C38.8698 8.47071 38.8319 8.3257 38.8319 8.23121C38.8319 8.13671 38.8698 7.9917 39.0461 7.8785ZM37.3242 11.3078L44.275 15.7022C44.9061 16.0994 45.6251 16.3014 46.3441 16.3014C46.9877 16.3014 47.637 16.1373 48.2175 15.8159C49.416 15.154 50.135 13.962 50.135 12.6256V9.88951C70.7611 10.7343 87.2744 27.7631 87.2744 48.581C87.2744 63.4786 78.9548 76.8062 65.57 83.3758C64.7687 83.7669 64.4408 84.7315 64.8319 85.5318C65.1158 86.1058 65.6898 86.4398 66.2825 86.4398C66.5225 86.4398 66.762 86.3832 66.9954 86.2761C81.4967 79.1583 90.5039 64.7144 90.5039 48.581C90.5039 25.9851 72.54 7.51269 50.135 6.66132V3.83683C50.135 2.50037 49.416 1.30892 48.2175 0.646999C46.9751 -0.0401784 45.4674 0.0103425 44.275 0.760203L37.3242 5.15458C36.2455 5.83568 35.6023 6.98315 35.6023 8.23121C35.6023 9.47973 36.2455 10.6272 37.3242 11.3078Z" fill="#0057B2"/>
<path d="M27.5283 63.1067C25.7498 63.1067 24.2987 61.6565 24.2987 59.8785V30.8271C24.2987 29.0491 25.7498 27.5989 27.5283 27.5989H69.512C71.291 27.5989 72.7416 29.0491 72.7416 30.8271V59.8785C72.7416 61.6565 71.291 63.1067 69.512 63.1067H46.8867C45.7322 63.1067 44.616 63.5225 43.7329 64.2729L35.6023 71.1133V66.3344C35.6023 64.5568 34.1512 63.1067 32.3727 63.1067H27.5283ZM34.2775 74.0954C34.7317 74.3036 35.2047 74.4046 35.6715 74.4046C36.4349 74.4046 37.1853 74.1394 37.7971 73.6164L45.8393 66.7254C46.1298 66.4733 46.5082 66.3344 46.8867 66.3344H69.512C73.0761 66.3344 75.9712 63.4407 75.9712 59.8785V30.8271C75.9712 27.271 73.0761 24.3712 69.512 24.3712H27.5283C23.9647 24.3712 21.0696 27.271 21.0696 30.8271V59.8785C21.0696 63.4407 23.9647 66.3344 27.5283 66.3344H32.3727V71.1133C32.3727 72.4123 33.1043 73.5532 34.2775 74.0954Z" fill="#0057B2"/>
<path d="M32.3726 37.283H64.6676C65.5573 37.283 66.2824 36.5579 66.2824 35.6691C66.2824 34.7799 65.5573 34.0548 64.6676 34.0548H32.3726C31.4833 34.0548 30.7578 34.7799 30.7578 35.6691C30.7578 36.5579 31.4833 37.283 32.3726 37.283Z" fill="#0057B2"/>
<path d="M32.3726 45.3527H64.6676C65.5573 45.3527 66.2824 44.6277 66.2824 43.7389C66.2824 42.8496 65.5573 42.125 64.6676 42.125H32.3726C31.4833 42.125 30.7578 42.8496 30.7578 43.7389C30.7578 44.6277 31.4833 45.3527 32.3726 45.3527Z" fill="#0057B2"/>
<path d="M50.1349 53.4225C51.0242 53.4225 51.7497 52.6975 51.7497 51.8087C51.7497 50.9199 51.0242 50.1948 50.1349 50.1948H32.3726C31.4833 50.1948 30.7578 50.9199 30.7578 51.8087C30.7578 52.6975 31.4833 53.4225 32.3726 53.4225H50.1349Z" fill="#0057B2"/>
<mask id="mask0_277_1441" style="mask-type:luminance" maskUnits="userSpaceOnUse" x="6" y="10" width="56" height="87">
<path d="M6.48682 10.6581H61.5531V97.0001H6.48682V10.6581Z" fill="white"/>
</mask>
<g mask="url(#mask0_277_1441)">
<path d="M50.1349 84.542C50.1349 84.3469 50.2673 84.2333 50.381 84.1701C50.4249 84.1449 50.5512 84.0883 50.7028 84.0883C50.8034 84.0883 50.9171 84.1135 51.0368 84.1893L57.9942 88.5771C58.171 88.6908 58.2089 88.8293 58.2089 88.9303C58.2089 89.0309 58.171 89.1698 57.9942 89.2835L51.0368 93.6713C50.7407 93.8603 50.4568 93.7345 50.381 93.69C50.2673 93.6273 50.1349 93.5137 50.1349 93.3181V84.542ZM46.9053 90.5063V93.3181C46.9053 94.6611 47.6243 95.8591 48.8228 96.5145C49.4033 96.8363 50.0531 97.0001 50.6963 97.0001C51.4152 97.0001 52.1347 96.7985 52.7653 96.4013L59.7161 92.0069C60.7948 91.3258 61.4385 90.1784 61.4385 88.9303C61.4385 87.6818 60.7948 86.5343 59.7161 85.8537L52.7653 81.4593C51.5729 80.709 50.0591 80.665 48.8228 81.3456C47.6243 82.0015 46.9053 83.1995 46.9053 84.542V87.2785C26.2793 86.4272 9.76597 69.3984 9.76597 48.581C9.76597 33.683 18.086 20.3553 31.4707 13.7857C32.2716 13.3946 32.5995 12.424 32.2084 11.6231C31.8174 10.8288 30.8523 10.4948 30.0449 10.8854C15.5441 18.0033 6.53638 32.4471 6.53638 48.581C6.53638 71.1825 24.5007 89.6488 46.9053 90.5063Z" fill="#0057B2"/>
</g>
</svg>
