<svg width="114" height="103" viewBox="0 0 114 103" fill="none" xmlns="http://www.w3.org/2000/svg">
<g clip-path="url(#clip0_312_1564)">
<mask id="mask0_312_1564" style="mask-type:luminance" maskUnits="userSpaceOnUse" x="0" y="11" width="114" height="92">
<path d="M0.354004 11.4H113.615V102.6H0.354004V11.4Z" fill="white"/>
</mask>
<g mask="url(#mask0_312_1564)">
<path d="M102.652 83.7678H11.3175C7.44767 83.7678 4.27605 80.7534 4.00612 76.9501H109.964C109.694 80.7534 106.523 83.7678 102.652 83.7678ZM62.7681 98.9414L51.2021 98.9337V87.3941H62.7681V98.9414ZM11.3175 15.0385H102.652C106.698 15.0385 109.99 18.3316 109.99 22.3785V73.3239H3.97973V22.3785C3.97973 18.3316 7.27174 15.0385 11.3175 15.0385ZM102.652 11.4122H11.3175C5.27223 11.4122 0.354004 16.3321 0.354004 22.3785V76.4273C0.354004 82.4742 5.27223 87.3941 11.3175 87.3941H47.5769V98.931L20.7455 98.9117C20.7449 98.9117 20.7444 98.9117 20.7438 98.9117C19.7438 98.9117 18.9323 99.7227 18.9312 100.724C18.9307 101.725 19.7416 102.537 20.7427 102.538L47.5769 102.557V102.59H66.3938V102.571L93.2247 102.59C93.2253 102.59 93.2253 102.59 93.2264 102.59C94.227 102.59 95.0384 101.779 95.039 100.778C95.0395 99.7765 94.2286 98.964 93.2275 98.9634L66.3938 98.9447V87.3941H102.652C108.699 87.3941 113.616 82.4742 113.616 76.4273V22.3785C113.616 16.3321 108.699 11.4122 102.652 11.4122Z" fill="#0057B2"/>
</g>
<path d="M45.0353 57.1061H93.2401C94.2412 57.1061 95.0527 56.2941 95.0527 55.2924C95.0527 54.2907 94.2412 53.4792 93.2401 53.4792H45.0353C44.0342 53.4792 43.2222 54.2907 43.2222 55.2924C43.2222 56.2941 44.0342 57.1061 45.0353 57.1061Z" fill="#0057B2"/>
<path d="M45.0353 63.2564H69.1377C70.1394 63.2564 70.9503 62.4449 70.9503 61.4433C70.9503 60.4416 70.1394 59.6301 69.1377 59.6301H45.0353C44.0342 59.6301 43.2222 60.4416 43.2222 61.4433C43.2222 62.4449 44.0342 63.2564 45.0353 63.2564Z" fill="#0057B2"/>
<path d="M22.1799 67.7964H35.7685C37.5679 67.7964 39.0319 66.3324 39.0319 64.533V58.6862C39.0319 57.685 38.2199 56.8736 37.2188 56.8736C36.2177 56.8736 35.4067 57.685 35.4067 58.6862V64.1701H22.5427V51.3028H33.6365C34.6376 51.3028 35.4491 50.4913 35.4491 49.4902C35.4491 48.4885 34.6376 47.6765 33.6365 47.6765H22.1799C20.3805 47.6765 18.917 49.1405 18.917 50.9405V64.533C18.917 66.3324 20.3805 67.7964 22.1799 67.7964Z" fill="#0057B2"/>
<path d="M38.6455 48.825L29.6596 57.2309L27.2263 55.3084C26.5479 54.7718 25.5621 54.8873 25.0261 55.5668C24.4895 56.2463 24.6055 57.2315 25.2845 57.7675L28.775 60.5252C29.0603 60.7511 29.4034 60.8627 29.7453 60.8627C30.1313 60.8627 30.5161 60.7203 30.8157 60.4399L40.7852 51.1137C41.4169 50.5227 41.4505 49.5309 40.8595 48.8986C40.2679 48.267 39.2767 48.2334 38.6455 48.825Z" fill="#0057B2"/>
<path d="M45.1366 29.7766H93.3419C94.343 29.7766 95.1545 28.9651 95.1545 27.9635C95.1545 26.9618 94.343 26.1498 93.3419 26.1498H45.1366C44.1354 26.1498 43.324 26.9618 43.324 27.9635C43.324 28.9651 44.1354 29.7766 45.1366 29.7766Z" fill="#0057B2"/>
<path d="M45.1371 35.9268H69.2395C70.2406 35.9268 71.0521 35.1154 71.0521 34.1142C71.0521 33.112 70.2406 32.3005 69.2395 32.3005H45.1371C44.1354 32.3005 43.324 33.112 43.324 34.1142C43.324 35.1154 44.1354 35.9268 45.1371 35.9268Z" fill="#0057B2"/>
<path d="M22.2815 40.4674H35.8701C37.6695 40.4674 39.133 39.0034 39.133 37.2034V31.3572C39.133 30.3561 38.3215 29.5441 37.3204 29.5441C36.3193 29.5441 35.5073 30.3561 35.5073 31.3572V36.8411H22.6438V23.9744H33.7376C34.7392 23.9744 35.5507 23.1623 35.5507 22.1607C35.5507 21.1595 34.7392 20.3475 33.7376 20.3475H22.2815C20.4821 20.3475 19.0181 21.8116 19.0181 23.6115V37.2034C19.0181 39.0034 20.4821 40.4674 22.2815 40.4674Z" fill="#0057B2"/>
<path d="M27.3274 27.9794C26.6495 27.4428 25.6638 27.5588 25.1272 28.2373C24.5906 28.9168 24.7066 29.9025 25.3856 30.4391L28.8761 33.1962C29.1619 33.4221 29.5045 33.5332 29.847 33.5332C30.2329 33.5332 30.6172 33.3913 30.9168 33.1115L40.8869 23.7847C41.5185 23.1937 41.5515 22.2019 40.9605 21.5697C40.3695 20.938 39.3783 20.9045 38.7466 21.496L29.7606 29.902L27.3274 27.9794Z" fill="#0057B2"/>
</g>
<defs>
<clipPath id="clip0_312_1564">
<rect width="114" height="92" fill="white" transform="translate(0 11)"/>
</clipPath>
</defs>
</svg>
