<svg width="60" height="60" viewBox="0 0 60 60" fill="none" xmlns="http://www.w3.org/2000/svg">
<path d="M0 20C0 8.95433 8.95431 0 20 0H39.501C50.5467 0 59.501 8.95431 59.501 20V39.501C59.501 50.5467 50.5467 59.501 39.501 59.501H20C8.95433 59.501 0 50.5467 0 39.501V20Z" fill="#F5DE19"/>
<path d="M37.5723 47.8813C38.8685 47.1264 40.5238 47.6977 41.7108 48.6147C41.8808 48.746 42.0581 48.8686 42.2421 48.9818C43.2197 49.5834 44.3473 49.8965 45.495 49.885C47.8113 49.885 49.2925 48.7268 49.2925 47.1224C49.2925 45.2099 47.771 44.5257 45.2209 43.41L43.8226 42.8107C39.7851 41.0916 37.1075 38.9389 37.1075 34.3871C37.1075 30.1944 40.2951 27.0005 45.2953 27.0005C46.9139 26.8836 48.5312 27.2459 49.9453 28.0421C50.7091 28.4721 51.3953 29.0185 51.9815 29.6577C52.8338 30.5872 52.4361 31.9964 51.3736 32.6756L50.8095 33.0363C49.8066 33.6774 48.4443 33.1762 47.4545 32.5151V32.5151C46.8135 32.087 46.0575 31.8639 45.2868 31.8753C44.9505 31.8416 44.6109 31.8784 44.2897 31.9832C43.9684 32.0881 43.6725 32.2587 43.4208 32.4842C43.1691 32.7097 42.9671 32.9851 42.8278 33.293C42.6884 33.6009 42.6147 33.9344 42.6114 34.2723C42.6114 35.949 43.6505 36.629 46.0497 37.6724L47.448 38.2717C52.1995 40.3096 54.8856 42.3857 54.8856 47.0544C54.8856 52.0887 50.9309 54.847 45.6204 54.847C43.5513 54.9788 41.4882 54.509 39.6801 53.4943C38.5969 52.8864 37.6329 52.0984 36.8264 51.1697C35.918 50.1235 36.375 48.5786 37.5723 47.8813V47.8813ZM17.767 48.4557C19.1076 47.6427 20.6731 48.3021 21.9248 49.2464C22.42 49.6199 23.022 49.8446 23.8154 49.8446C25.6514 49.8446 26.8117 49.1264 26.8117 46.3319V30.1147C26.8117 28.5708 28.0633 27.3192 29.6072 27.3192V27.3192C31.1511 27.3192 32.4027 28.5708 32.4027 30.1147V46.4063C32.4027 52.1949 29.0026 54.83 24.0534 54.83C22.304 54.9256 20.5666 54.4896 19.0695 53.5793C18.2775 53.0978 17.5724 52.4953 16.9773 51.7982C16.0665 50.7313 16.5675 49.1831 17.767 48.4557V48.4557Z" fill="black"/>
</svg>
