<svg width="273" height="122" viewBox="0 0 273 122" fill="none" xmlns="http://www.w3.org/2000/svg">
<g filter="url(#filter0_d_220_850)">
<path d="M41.6165 27.535V61.626C41.6165 67.4173 40.0348 71.846 36.8715 74.912C33.7568 77.978 29.4498 79.511 23.9505 79.511C18.1105 79.511 13.4385 77.8807 9.9345 74.62C6.47917 71.3593 4.7515 66.663 4.7515 60.531H18.9135C18.9622 64.5703 20.4465 66.59 23.3665 66.59C25.9945 66.59 27.3085 64.9353 27.3085 61.626V27.535H41.6165ZM70.0744 79.511C64.0884 79.511 59.173 78.0997 55.3284 75.277C51.4837 72.4057 49.4154 68.3177 49.1234 63.013H64.3804C64.5264 64.8137 65.0617 66.1277 65.9864 66.955C66.911 67.7823 68.1034 68.196 69.5634 68.196C70.8774 68.196 71.948 67.8797 72.7754 67.247C73.6514 66.5657 74.0894 65.641 74.0894 64.473C74.0894 62.9643 73.3837 61.7963 71.9724 60.969C70.561 60.1417 68.2737 59.217 65.1104 58.195C61.7524 57.0757 59.027 56.005 56.9344 54.983C54.8904 53.9123 53.0897 52.3793 51.5324 50.384C50.0237 48.34 49.2694 45.6877 49.2694 42.427C49.2694 39.1177 50.0967 36.295 51.7514 33.959C53.406 31.5743 55.6934 29.7737 58.6134 28.557C61.5334 27.3403 64.8427 26.732 68.5414 26.732C74.5274 26.732 79.2967 28.1433 82.8494 30.966C86.4507 33.74 88.373 37.6577 88.6164 42.719H73.0674C73.0187 41.1617 72.532 39.9937 71.6074 39.215C70.7314 38.4363 69.5877 38.047 68.1764 38.047C67.1057 38.047 66.2297 38.3633 65.5484 38.996C64.867 39.6287 64.5264 40.529 64.5264 41.697C64.5264 42.6703 64.8914 43.522 65.6214 44.252C66.4 44.9333 67.349 45.5417 68.4684 46.077C69.5877 46.5637 71.2424 47.1963 73.4324 47.975C76.693 49.0943 79.3697 50.2137 81.4624 51.333C83.6037 52.4037 85.4287 53.9367 86.9374 55.932C88.4947 57.8787 89.2734 60.3607 89.2734 63.378C89.2734 66.444 88.4947 69.1937 86.9374 71.627C85.4287 74.0603 83.2144 75.9827 80.2944 77.394C77.423 78.8053 74.0164 79.511 70.0744 79.511Z" fill="#1976D2"/>
<path d="M131.684 87.614L125.99 79.073C124.384 79.365 122.754 79.511 121.099 79.511C116.281 79.511 111.852 78.3917 107.813 76.153C103.774 73.8657 100.562 70.7267 98.1769 66.736C95.8409 62.6967 94.6729 58.1463 94.6729 53.085C94.6729 48.0237 95.8409 43.4977 98.1769 39.507C100.562 35.4677 103.774 32.3287 107.813 30.09C111.852 27.8513 116.281 26.732 121.099 26.732C125.966 26.732 130.394 27.8513 134.385 30.09C138.424 32.3287 141.612 35.4677 143.948 39.507C146.284 43.4977 147.452 48.0237 147.452 53.085C147.452 57.319 146.6 61.2367 144.897 64.838C143.194 68.3907 140.858 71.3593 137.889 73.744L148.766 87.614H131.684ZM109.273 53.085C109.273 57.1243 110.319 60.3363 112.412 62.721C114.505 65.057 117.4 66.225 121.099 66.225C124.749 66.225 127.62 65.0327 129.713 62.648C131.854 60.2633 132.925 57.0757 132.925 53.085C132.925 48.997 131.854 45.785 129.713 43.449C127.62 41.0643 124.749 39.872 121.099 39.872C117.4 39.872 114.505 41.0643 112.412 43.449C110.319 45.785 109.273 48.997 109.273 53.085ZM168.471 27.535V57.392C168.471 60.166 169.104 62.3073 170.369 63.816C171.683 65.3247 173.654 66.079 176.282 66.079C178.91 66.079 180.881 65.3247 182.195 63.816C183.558 62.2587 184.239 60.1173 184.239 57.392V27.535H198.547V57.392C198.547 62.1127 197.55 66.152 195.554 69.51C193.559 72.8193 190.834 75.3257 187.378 77.029C183.972 78.6837 180.176 79.511 175.99 79.511C171.805 79.511 168.058 78.6837 164.748 77.029C161.488 75.3257 158.908 72.8193 157.01 69.51C155.161 66.2007 154.236 62.1613 154.236 57.392V27.535H168.471ZM221.233 27.535V79H206.925V27.535H221.233ZM245.503 67.393H266.892V79H229.443V68.123L250.613 39.069H229.443V27.535H266.892V38.412L245.503 67.393Z" fill="white"/>
</g>
<g filter="url(#filter1_d_220_850)">
<path d="M28.8601 3.048V8.64H34.9561V10.44H28.8601V16.2H35.6761V18H26.6761V1.248H35.6761V3.048H28.8601ZM44.6888 1.272C46.5128 1.272 48.0888 1.616 49.4168 2.304C50.7608 2.976 51.7848 3.944 52.4888 5.208C53.2088 6.472 53.5688 7.96 53.5688 9.672C53.5688 11.384 53.2088 12.872 52.4888 14.136C51.7848 15.384 50.7608 16.344 49.4168 17.016C48.0888 17.672 46.5128 18 44.6888 18H39.4808V1.272H44.6888ZM44.6888 16.2C46.8488 16.2 48.4968 15.632 49.6328 14.496C50.7688 13.344 51.3368 11.736 51.3368 9.672C51.3368 7.592 50.7608 5.968 49.6088 4.8C48.4728 3.632 46.8328 3.048 44.6888 3.048H41.6648V16.2H44.6888ZM59.0856 1.272V11.856C59.0856 13.344 59.4456 14.448 60.1656 15.168C60.9016 15.888 61.9176 16.248 63.2136 16.248C64.4936 16.248 65.4936 15.888 66.2136 15.168C66.9496 14.448 67.3176 13.344 67.3176 11.856V1.272H69.5016V11.832C69.5016 13.224 69.2216 14.4 68.6616 15.36C68.1016 16.304 67.3416 17.008 66.3816 17.472C65.4376 17.936 64.3736 18.168 63.1896 18.168C62.0056 18.168 60.9336 17.936 59.9736 17.472C59.0296 17.008 58.2776 16.304 57.7176 15.36C57.1736 14.4 56.9016 13.224 56.9016 11.832V1.272H59.0856ZM72.8289 9.624C72.8289 7.992 73.1969 6.528 73.9329 5.232C74.6689 3.92 75.6689 2.896 76.9329 2.16C78.2129 1.424 79.6289 1.056 81.1809 1.056C83.0049 1.056 84.5969 1.496 85.9569 2.376C87.3169 3.256 88.3089 4.504 88.9329 6.12H86.3169C85.8529 5.112 85.1809 4.336 84.3009 3.792C83.4369 3.248 82.3969 2.976 81.1809 2.976C80.0129 2.976 78.9649 3.248 78.0369 3.792C77.1089 4.336 76.3809 5.112 75.8529 6.12C75.3249 7.112 75.0609 8.28 75.0609 9.624C75.0609 10.952 75.3249 12.12 75.8529 13.128C76.3809 14.12 77.1089 14.888 78.0369 15.432C78.9649 15.976 80.0129 16.248 81.1809 16.248C82.3969 16.248 83.4369 15.984 84.3009 15.456C85.1809 14.912 85.8529 14.136 86.3169 13.128H88.9329C88.3089 14.728 87.3169 15.968 85.9569 16.848C84.5969 17.712 83.0049 18.144 81.1809 18.144C79.6289 18.144 78.2129 17.784 76.9329 17.064C75.6689 16.328 74.6689 15.312 73.9329 14.016C73.1969 12.72 72.8289 11.256 72.8289 9.624ZM102.572 14.28H95.2759L93.9319 18H91.6279L97.6759 1.368H100.196L106.22 18H103.916L102.572 14.28ZM101.948 12.504L98.9239 4.056L95.8999 12.504H101.948ZM119.652 1.272V3.048H115.092V18H112.908V3.048H108.324V1.272H119.652ZM125.024 1.272V18H122.84V1.272H125.024ZM136.83 18.168C135.278 18.168 133.862 17.808 132.582 17.088C131.302 16.352 130.286 15.336 129.534 14.04C128.798 12.728 128.43 11.256 128.43 9.624C128.43 7.992 128.798 6.528 129.534 5.232C130.286 3.92 131.302 2.904 132.582 2.184C133.862 1.448 135.278 1.08 136.83 1.08C138.398 1.08 139.822 1.448 141.102 2.184C142.382 2.904 143.39 3.912 144.126 5.208C144.862 6.504 145.23 7.976 145.23 9.624C145.23 11.272 144.862 12.744 144.126 14.04C143.39 15.336 142.382 16.352 141.102 17.088C139.822 17.808 138.398 18.168 136.83 18.168ZM136.83 16.272C137.998 16.272 139.046 16 139.974 15.456C140.918 14.912 141.654 14.136 142.182 13.128C142.726 12.12 142.998 10.952 142.998 9.624C142.998 8.28 142.726 7.112 142.182 6.12C141.654 5.112 140.926 4.336 139.998 3.792C139.07 3.248 138.014 2.976 136.83 2.976C135.646 2.976 134.59 3.248 133.662 3.792C132.734 4.336 131.998 5.112 131.454 6.12C130.926 7.112 130.662 8.28 130.662 9.624C130.662 10.952 130.926 12.12 131.454 13.128C131.998 14.136 132.734 14.912 133.662 15.456C134.606 16 135.662 16.272 136.83 16.272ZM161.766 18H159.582L150.798 4.68V18H148.614V1.248H150.798L159.582 14.544V1.248H161.766V18ZM175.877 14.28H168.581L167.237 18H164.933L170.981 1.368H173.501L179.525 18H177.221L175.877 14.28ZM175.253 12.504L172.229 4.056L169.205 12.504H175.253ZM184.845 16.224H190.701V18H182.661V1.272H184.845V16.224Z" fill="white"/>
</g>
<g filter="url(#filter2_d_220_850)">
<path d="M159.958 101.168C159.958 102.56 159.478 103.72 158.518 104.648C157.574 105.56 156.126 106.016 154.174 106.016H150.958V113H148.774V96.272H154.174C156.062 96.272 157.494 96.728 158.47 97.64C159.462 98.552 159.958 99.728 159.958 101.168ZM154.174 104.216C155.39 104.216 156.286 103.952 156.862 103.424C157.438 102.896 157.726 102.144 157.726 101.168C157.726 99.104 156.542 98.072 154.174 98.072H150.958V104.216H154.174ZM165.356 111.224H171.212V113H163.172V96.272H165.356V111.224ZM183.92 109.28H176.624L175.28 113H172.976L179.024 96.368H181.544L187.568 113H185.264L183.92 109.28ZM183.296 107.504L180.272 99.056L177.248 107.504H183.296ZM200.999 96.272V98.048H196.439V113H194.255V98.048H189.671V96.272H200.999ZM213.644 96.272V98.048H206.372V103.688H212.276V105.464H206.372V113H204.188V96.272H213.644ZM224.366 113.168C222.814 113.168 221.398 112.808 220.118 112.088C218.838 111.352 217.822 110.336 217.07 109.04C216.334 107.728 215.966 106.256 215.966 104.624C215.966 102.992 216.334 101.528 217.07 100.232C217.822 98.92 218.838 97.904 220.118 97.184C221.398 96.448 222.814 96.08 224.366 96.08C225.934 96.08 227.358 96.448 228.638 97.184C229.918 97.904 230.926 98.912 231.662 100.208C232.398 101.504 232.766 102.976 232.766 104.624C232.766 106.272 232.398 107.744 231.662 109.04C230.926 110.336 229.918 111.352 228.638 112.088C227.358 112.808 225.934 113.168 224.366 113.168ZM224.366 111.272C225.534 111.272 226.582 111 227.51 110.456C228.454 109.912 229.19 109.136 229.718 108.128C230.262 107.12 230.534 105.952 230.534 104.624C230.534 103.28 230.262 102.112 229.718 101.12C229.19 100.112 228.462 99.336 227.534 98.792C226.606 98.248 225.55 97.976 224.366 97.976C223.182 97.976 222.126 98.248 221.198 98.792C220.27 99.336 219.534 100.112 218.99 101.12C218.462 102.112 218.198 103.28 218.198 104.624C218.198 105.952 218.462 107.12 218.99 108.128C219.534 109.136 220.27 109.912 221.198 110.456C222.142 111 223.198 111.272 224.366 111.272ZM244.957 113L240.973 106.16H238.333V113H236.149V96.272H241.549C242.813 96.272 243.877 96.488 244.741 96.92C245.621 97.352 246.277 97.936 246.709 98.672C247.141 99.408 247.357 100.248 247.357 101.192C247.357 102.344 247.021 103.36 246.349 104.24C245.693 105.12 244.701 105.704 243.373 105.992L247.573 113H244.957ZM238.333 104.408H241.549C242.733 104.408 243.621 104.12 244.213 103.544C244.805 102.952 245.101 102.168 245.101 101.192C245.101 100.2 244.805 99.432 244.213 98.888C243.637 98.344 242.749 98.072 241.549 98.072H238.333V104.408ZM268.218 96.392V113H266.034V100.616L260.514 113H258.978L253.434 100.592V113H251.25V96.392H253.602L259.746 110.12L265.89 96.392H268.218Z" fill="white"/>
</g>
<defs>
<filter id="filter0_d_220_850" x="0.751526" y="26.7319" width="270.14" height="68.8821" filterUnits="userSpaceOnUse" color-interpolation-filters="sRGB">
<feFlood flood-opacity="0" result="BackgroundImageFix"/>
<feColorMatrix in="SourceAlpha" type="matrix" values="0 0 0 0 0 0 0 0 0 0 0 0 0 0 0 0 0 0 127 0" result="hardAlpha"/>
<feOffset dy="4"/>
<feGaussianBlur stdDeviation="2"/>
<feComposite in2="hardAlpha" operator="out"/>
<feColorMatrix type="matrix" values="0 0 0 0 0 0 0 0 0 0 0 0 0 0 0 0 0 0 0.25 0"/>
<feBlend mode="normal" in2="BackgroundImageFix" result="effect1_dropShadow_220_850"/>
<feBlend mode="normal" in="SourceGraphic" in2="effect1_dropShadow_220_850" result="shape"/>
</filter>
<filter id="filter1_d_220_850" x="22.6761" y="1.05591" width="172.024" height="25.1121" filterUnits="userSpaceOnUse" color-interpolation-filters="sRGB">
<feFlood flood-opacity="0" result="BackgroundImageFix"/>
<feColorMatrix in="SourceAlpha" type="matrix" values="0 0 0 0 0 0 0 0 0 0 0 0 0 0 0 0 0 0 127 0" result="hardAlpha"/>
<feOffset dy="4"/>
<feGaussianBlur stdDeviation="2"/>
<feComposite in2="hardAlpha" operator="out"/>
<feColorMatrix type="matrix" values="0 0 0 0 0 0 0 0 0 0 0 0 0 0 0 0 0 0 0.1 0"/>
<feBlend mode="normal" in2="BackgroundImageFix" result="effect1_dropShadow_220_850"/>
<feBlend mode="normal" in="SourceGraphic" in2="effect1_dropShadow_220_850" result="shape"/>
</filter>
<filter id="filter2_d_220_850" x="144.774" y="96.0801" width="127.445" height="25.0879" filterUnits="userSpaceOnUse" color-interpolation-filters="sRGB">
<feFlood flood-opacity="0" result="BackgroundImageFix"/>
<feColorMatrix in="SourceAlpha" type="matrix" values="0 0 0 0 0 0 0 0 0 0 0 0 0 0 0 0 0 0 127 0" result="hardAlpha"/>
<feOffset dy="4"/>
<feGaussianBlur stdDeviation="2"/>
<feComposite in2="hardAlpha" operator="out"/>
<feColorMatrix type="matrix" values="0 0 0 0 0 0 0 0 0 0 0 0 0 0 0 0 0 0 0.1 0"/>
<feBlend mode="normal" in2="BackgroundImageFix" result="effect1_dropShadow_220_850"/>
<feBlend mode="normal" in="SourceGraphic" in2="effect1_dropShadow_220_850" result="shape"/>
</filter>
</defs>
</svg>
