<svg width="55" height="62" viewBox="0 0 55 62" fill="none" xmlns="http://www.w3.org/2000/svg">
<path d="M27.3165 61.6071C26.4854 61.6074 25.6689 61.3888 24.949 60.9734L17.4153 56.5134C16.2909 55.8841 16.8388 55.6619 17.2106 55.5321C18.4064 55.1627 19.5514 54.6453 20.6189 53.9919C20.7082 53.9506 20.8066 53.9327 20.9048 53.94C21.003 53.9473 21.0977 53.9796 21.1799 54.0337L26.9689 57.4728C27.0767 57.5298 27.1968 57.5596 27.3187 57.5596C27.4407 57.5596 27.5608 57.5298 27.6686 57.4728L50.2435 44.4427C50.3491 44.3794 50.4365 44.2897 50.4971 44.1825C50.5576 44.0753 50.5893 43.9541 50.5889 43.831V17.7664C50.589 17.6413 50.5569 17.5183 50.4956 17.4093C50.4343 17.3002 50.346 17.2088 50.2391 17.1438L27.6642 4.12468C27.5577 4.06472 27.4376 4.03323 27.3154 4.03323C27.1933 4.03323 27.0731 4.06472 26.9667 4.12468L4.40498 17.1482C4.29736 17.2118 4.208 17.3022 4.14556 17.4105C4.08311 17.5188 4.04969 17.6414 4.04854 17.7664V43.82C4.04885 43.9429 4.08181 44.0634 4.14406 44.1694C4.20631 44.2753 4.2956 44.3628 4.40278 44.4229L10.5944 47.9961C13.9498 49.6727 16.0049 47.6969 16.0049 45.7122V19.9887C16.0049 19.902 16.022 19.8162 16.0551 19.7361C16.0883 19.656 16.1369 19.5833 16.1982 19.522C16.2595 19.4607 16.3323 19.4121 16.4124 19.3789C16.4924 19.3457 16.5783 19.3286 16.665 19.3286H19.5253C19.7004 19.3286 19.8683 19.3982 19.9921 19.522C20.1159 19.6458 20.1854 19.8137 20.1854 19.9887V45.7144C20.1854 50.192 17.7475 52.7553 13.501 52.7553C11.669 52.7873 9.86567 52.2973 8.30168 51.3428L2.36752 47.9389C1.64712 47.5194 1.04937 46.9183 0.633934 46.1955C0.2185 45.4727 -7.97526e-05 44.6536 1.5648e-05 43.82V17.7664C-0.00212564 16.9315 0.21553 16.1107 0.631109 15.3865C1.04669 14.6623 1.64555 14.0603 2.36752 13.6409L24.9446 0.606423C25.6719 0.20854 26.4876 0 27.3165 0C28.1455 0 28.9612 0.20854 29.6884 0.606423L52.2633 13.6409C52.9837 14.0596 53.5816 14.6599 53.9974 15.3819C54.4132 16.1039 54.6324 16.9223 54.6331 17.7554V43.82C54.6318 44.6536 54.4124 45.4724 53.9967 46.195C53.581 46.9176 52.9834 47.5188 52.2633 47.9389L29.6884 60.9734C28.9673 61.3895 28.1491 61.6081 27.3165 61.6071Z" fill="#83CD29"/>
<path d="M23.0347 35.1C23.0347 34.925 23.1042 34.7571 23.228 34.6333C23.3518 34.5095 23.5197 34.4399 23.6948 34.4399H26.6145C26.7705 34.4405 26.9213 34.4962 27.0401 34.5973C27.159 34.6984 27.2381 34.8383 27.2636 34.9922C27.7037 37.9648 29.0238 39.4632 34.9932 39.4632C39.748 39.4632 41.7745 38.3873 41.7745 35.8635C41.7745 34.4091 41.2002 33.3288 33.8095 32.6049C27.6311 31.9932 23.8114 30.6247 23.8114 25.6872C23.8114 21.1326 27.6509 18.4153 34.0867 18.4153C41.319 18.4153 44.8989 20.9258 45.3521 26.3121C45.3591 26.402 45.3475 26.4924 45.3181 26.5777C45.2888 26.663 45.2422 26.7413 45.1814 26.8079C45.1206 26.8745 45.0468 26.9279 44.9645 26.9649C44.8822 27.0019 44.7932 27.0216 44.7031 27.0228H41.7635C41.616 27.0207 41.4735 26.9693 41.3586 26.8768C41.2438 26.7843 41.1632 26.656 41.1298 26.5123C40.4279 23.3857 38.7095 22.3868 34.0889 22.3868C28.8962 22.3868 28.2933 24.1954 28.2933 25.5508C28.2933 27.1922 29.0062 27.6719 36.0163 28.5982C42.9538 29.5157 46.2499 30.8139 46.2499 35.6897C46.2499 40.6095 42.1485 43.4259 34.9954 43.4259C25.1051 43.4391 23.0347 38.9043 23.0347 35.1Z" fill="#83CD29"/>
</svg>
