<svg width="62" height="55" viewBox="0 0 62 55" fill="none" xmlns="http://www.w3.org/2000/svg">
<path d="M30.7459 32.8033C33.779 32.8033 36.2379 30.3444 36.2379 27.3113C36.2379 24.2782 33.779 21.8193 30.7459 21.8193C27.7127 21.8193 25.2539 24.2782 25.2539 27.3113C25.2539 30.3444 27.7127 32.8033 30.7459 32.8033Z" fill="#00D8FF"/>
<path d="M30.7459 39.9035C24.1448 40.0632 17.5603 39.1734 11.2384 37.2674C8.31804 36.3416 5.59427 34.8833 3.20475 32.9661C2.29293 32.3111 1.53359 31.4666 0.978833 30.4906C0.424079 29.5146 0.0870413 28.4301 -0.00915527 27.3115C-0.00915527 23.6802 3.98021 20.1214 10.6628 17.7928C17.1538 15.7295 23.9357 14.7295 30.7459 14.8316C37.4652 14.7377 44.1563 15.7196 50.5653 17.7401C53.3778 18.6367 56.0093 20.0246 58.3376 21.8393C59.2338 22.4637 59.9818 23.2776 60.5284 24.2233C61.0751 25.1689 61.4071 26.2232 61.5009 27.3115C61.5009 31.0856 57.0415 34.9102 49.858 37.2871C43.6585 39.1311 37.2129 40.0134 30.7459 39.9035ZM30.7459 17.4589C24.2305 17.3718 17.7427 18.3225 11.5262 20.2752C5.37518 22.4215 2.6182 25.3564 2.6182 27.3049C2.6182 29.3435 5.58167 32.5487 12.0886 34.774C18.1365 36.5882 24.4337 37.4328 30.7459 37.2762C36.9329 37.3868 43.1005 36.5496 49.0342 34.7938C55.7893 32.5553 58.8648 29.3457 58.8648 27.3115C58.754 26.6134 58.4996 25.9459 58.1177 25.3511C57.7358 24.7564 57.2347 24.2473 56.646 23.856C54.5629 22.246 52.2123 21.016 49.702 20.2225C43.5708 18.2976 37.1715 17.3646 30.7459 17.4589Z" fill="#00D8FF"/>
<path d="M18.2684 54.7033C17.2436 54.7268 16.2309 54.4782 15.3335 53.9827C12.1877 52.1682 11.0981 46.9354 12.4184 39.9826C13.8741 33.3287 16.3964 26.9541 19.8875 21.1056C23.1623 15.2382 27.3548 9.93253 32.3059 5.38976C34.4877 3.40101 37.0046 1.81457 39.7399 0.704003C40.7292 0.240347 41.8084 0 42.901 0C43.9937 0 45.0729 0.240347 46.0622 0.704003C49.3332 2.58885 50.4163 8.36201 48.8895 15.7718C47.3889 22.0646 44.9321 28.0901 41.6049 33.6383C38.4454 39.4364 34.3849 44.6959 29.5753 49.2201C27.3144 51.2868 24.6904 52.9172 21.836 54.0289C20.6933 54.453 19.4871 54.681 18.2684 54.7033ZM22.1634 22.4105C18.8332 28.0108 16.4158 34.1055 15.0018 40.4659C13.787 46.8695 14.9535 50.7205 16.6494 51.7003C18.4068 52.7174 22.673 51.753 27.853 47.2276C32.4444 42.8932 36.32 37.8588 39.3357 32.3114C42.5231 27.0073 44.8797 21.2465 46.3236 15.2292C47.7603 8.25437 46.5192 3.98381 44.7573 2.96889C44.097 2.71588 43.3914 2.60262 42.685 2.63628C41.9787 2.66993 41.287 2.84976 40.6537 3.16441C38.219 4.1691 35.9806 5.59544 34.0414 7.37785C29.311 11.7292 25.3063 16.8085 22.1787 22.4237L22.1634 22.4105Z" fill="#00D8FF"/>
<path d="M43.2171 54.7319C40.2405 54.7319 36.4598 52.9305 32.5232 49.5452C27.4853 44.9612 23.2219 39.5925 19.8982 33.6471C16.4509 27.8791 13.9486 21.5967 12.4863 15.0381C11.8521 12.1526 11.7346 9.17747 12.1392 6.25092C12.2327 5.16528 12.5633 4.11339 13.1076 3.1694C13.6519 2.22542 14.3966 1.41235 15.2894 0.787508C18.556 -1.10393 24.0985 0.84023 29.7552 5.86209C34.4577 10.3044 38.451 15.4416 41.5959 21.0946C45.0411 26.728 47.5697 32.8728 49.087 39.2994C49.7485 42.2908 49.8505 45.3788 49.3879 48.4073C49.2779 49.5242 48.9276 50.604 48.3611 51.5728C47.7946 52.5416 47.0253 53.3765 46.1059 54.0201C45.2232 54.5094 44.2262 54.755 43.2171 54.7319ZM22.1719 32.3246C25.3604 38.0065 29.4329 43.1446 34.2367 47.5462C39.1773 51.797 43.0963 52.7108 44.7813 51.7201C46.5387 50.6986 47.8348 46.5291 46.4992 39.7827C45.0358 33.6469 42.6106 27.7815 39.3135 22.4039C36.3123 16.9935 32.5006 12.0743 28.011 7.81723C22.686 3.08974 18.3671 2.03309 16.6074 3.0524C16.059 3.49809 15.6089 4.05265 15.2856 4.68107C14.9624 5.30949 14.7729 5.99811 14.7292 6.70346C14.3799 9.31344 14.4937 11.9646 15.0653 14.535C16.4719 20.8072 18.8718 26.8142 22.1741 32.329L22.1719 32.3246Z" fill="#00D8FF"/>
</svg>
